<mxfile host="app.diagrams.net" modified="2024-07-18T10:51:24.304Z" agent="Mozilla/5.0 (Windows NT 10.0; Win64; x64) AppleWebKit/537.36 (KHTML, like Gecko) Chrome/126.0.0.0 Safari/537.36" etag="ozAZkhCJ4yIkXVSvuR0y" version="24.7.1" type="device">
  <diagram name="ページ1" id="WZC0p6EqI7H_TtYnzWE9">
    <mxGraphModel dx="3152" dy="526" grid="1" gridSize="10" guides="1" tooltips="1" connect="1" arrows="1" fold="1" page="1" pageScale="1" pageWidth="827" pageHeight="1169" math="0" shadow="0">
      <root>
        <mxCell id="0" />
        <mxCell id="1" parent="0" />
        <mxCell id="uIYsc5EEo-gaZTBiMCS1-42" value="" style="shape=image;verticalLabelPosition=bottom;labelBackgroundColor=default;verticalAlign=top;aspect=fixed;imageAspect=0;image=data:image/png,iVBORw0KGgoAAAANSUhEUgAABDoAAASCCAYAAABTtIyhAAAAAXNSR0IArs4c6QAAAARnQU1BAACxjwv8YQUAAAAJcEhZcwAADsMAAA7DAcdvqGQAALWbSURBVHhe7N0HYBRl4vfxXxohIfQWpChFpCpweggiSjzQU2wgngbLIXinYjtBX0TstEPwb0P0DuROj3gW4JSiwgmKQuRUQKkqRSkSeicJKfvOMzsLm5CyKbtJJt+PDvvM7Oxs3+zz26cIAAAAAADALcLsf0es8dinAAAAAAAAFdX4DmEng44z/93XLgIAAAAAAFQ0v9w01w46wp11AAAAAACACo+gAwAAAAAAuAZBBwAAAAAAcA2CDgAAAAAA4BoEHQAAAAAAwDUq5awr4eHhio6OVoR1aspyJp8BgLx4PB5lZWUpMzNTJ06ccLYCAAAAKE98s66UWtBhgoPYmBhFVamiyIgIRVhLoOwKhLVkWBWI46mpSk9Pd84pXXFxcfZtNLcVAIrDfF6lWp9TR48dU0ZGhrM1iDweeayP6jDr1ISy1r/2tjBTdrbZH+S+/UwZAAAAqIRKZXpZ80XbhAeNGjVSg/r17XJ0lSpFCjkMs7+5nLm8OY45XnWrbI5fGqpVq6YzrGPWrlWLkANAiZjPK/NZFd+woerWqeNtFRYEdqBh+MIL5/PQ/Ov7bDSnJz8l/cuWk5cHAAAAKplif0M3X/YbNmhghwemBUdpMserZR23oVWRMN1LSqJmjRqqU7t2kcMXAChMbGys/TlYmp8vvoDCP7QoDt/lCTwAAABQ2RQrRYiKilID68u9OQ2mqMhIO+wwp8VRs2ZN1ahRw1kDgNIXaT6nSinsMKFESQOO3OzjmS4uAAAAQCVR5KAjPCxM9evVK/VWHPkxlYd61vUVtRtL1apVVaN6dWcNAILH/pyqW9dZK4EgBRLEHAAAAKhMihx01K1XL+TdQMwvpqYvfKDM7SvK/gBQUlWqVFGtmjWdtaLxBRGlNS5Rbr7jEngAAACgMihS0BETE6OqZTSYp7luswTCjMsRrAECASA/1atXt4PZIjGtOELUtcTEHYQdAAAAcLuA0wDTZaW4v1aWlkCu3wQcZpYVACgLZkaWgJmAw/psDVZLjrzYYQdjdgAAAMDFAg46oqtWLfovlaXMXL8Ze6MgZhaEkoiuGqNW57TRRZckKKHPlfbS45LL1LpNO+u6A2tRAqDyig2w5ZkthAGHv1AGKwAAAECoeb/tjljjOfPffe1ifswUreWhpcTRo0d14OBBZ+10DerXV3QRuteYXzbNl/6I8Ai179RFbTucq/r1GtjbfL96nshIlyfboyNHjmj9mu+0etUKZWdnnbwsAPjbtXu3Tpw44azlzXy6lNWnB59dAAAAcKNfbporje8QFnCLjmBPJRsoM+BfQYpyO31f9qOjqyrhir52y43qcdW1edNPSv7yc30y7z/62Fp2p+yyKy3m2N0u7qXev79a0VWq5ghDAMAnkM+hksYM7dq1s5fiIOQAAACAm3m/7QbQouOMRo1CPttKXrKysvTrzp3O2umaNmnilArmCznMfUroc5XdNWXPnl1a+fVX+unHDWYHe7+46jV01bU3KCY2VhkZGd5tcTW0ZdOP+vSTufbt4ddRAP4OHTqkw0eOOGunK43PjH+//bZ9etPNN9unxcFnFwAAQHB1/e1vNXDgQDVo0MDZkr+fNm7U448/7qxVHB9/9JH++te/avFnnzlb8md6X0x/4w0lWo9JMPhadAQcdDRp3LhcfCE2X8y379jhrJ0u0KDD59zO5+viXr/T3t279OmC+fapyTiioiLV4bwuOqtFK9WsVVvZ2dnOJbxhS42atbRsySJ9v/IbZ2tgXnrpJdWvX99Zy2n16tUaO3assxa4kSNHKj4+Xvfff7+zJfjOPfdc9e3bVy1atDjZpenXX3/VnDlz9Jn1Ajf3MyUlpVj3J1A3WxW8bt265Xu/g30bLr30Uv35z3/W66+/bt9nVAwdOnSwX7svvPCC0tLSnK1eZgygBx98UHPnztWaNWucrUV3+PBhHbKW/JRGt5VSCTqshZgDAAAgOFq3bm3XRcaMGRPQ8AomFDF1xVEVLOy45JJLNOXVVzX03nu1ePFiZ+vpzGPwxrRpyrTq07fffruztXQVuetKcUKOtm3bOqW8FXZ+XkozbDEDj7breJ4yTpzQt8uT7ZAjPDzCug7ZAUf3i3upRq1adrBhrte3mJldjh87al+2qAOUmkq5qaCbZc+ePXa44VsPZihQmkzIcc8999jhSnJysl3Rf9uqdO3bt0+NGjVy9iqZa665RlOnTnXWyicTbpjnjZCjYunTp4/OO+88/b//9/9yDG5symabOc/sE0zlJVwg5AAAAAie2rVrKzMzUytXrtRXX31V+LJ8uVqdfbZz6Yrj888/191W/fCVl1+2Q4+8+FpymPr0n/70J2dr8AQcdBRVQkKCnnjiCd16663OlpzMdnP+xRdf7GwJvabNzlLdevW1Y/tWe1wO86B7PN6WG/FnmBYsUkREpN3f3rQk8ZedlaXq1Wuo6ZlnOVsqjyFDhujYsWN2aDNt2jS7ov/hhx/aQY0JPEqDaSXCNMEIhpetD+DvvvtObdq0ORl2+EIOs82cZ/YBAAAAEBgTdtwzdKhenTz5tLDDF3IYg+64Q+np6XY5mIIWdJiuHiYcuPLKK08LO8y62W7O9+8SEmoNG52h8LBw7dyx4+QsKr5AY9svP+ub5cn67tv/aeev2xUeEW637DABhxFuj1cSpobxZ9jrpWXw4MF67bXX7MDgn//8p8aNG2e3oPD31FNP2eeZfcz5eQ3QarqzmBYRZh9zatbzM2nSJLubh4/pkmEuZ05zMy0tTHMq00WlMOZ2mdvnuy/Dhg1zzvEy5/nuh7mN5tiGua2+sjnPLMFQ2GNtyrkfa7Pu/1iZ7aZVh2FOzbo5ru+xN/vmfv5QtsxYO+Y17ws7RowYYS++kMOc5xuPBwAAAEBg8go7yiLkMIIWdJhf+f/2t7/ZZRNq3HTTTXbZnJp1w5y/dOlSu1wWzINuWnAcOXJIkZGRduuNCOvUhBi/bNmk5cuWaMXXX+m7b7+2Z1mJrVbNHpQ0JiZGx48ds9t9V4k+1fS9pEwFuWfPnvr666/tSvP06dPt5k6mBYWPqWibLiPmPLPP3r171bx5c+dcL7NPs2bN7FYWZp9PP/1U55xzTr5hhwktatasebLC3q9fP7tLTV5dMsz4BmagxUC6a5jbtXHjRvu45j6df/75JwMMw0zX67sf27dvP3meaRlibrthzvPdrtIUyGNtHofCHuu8tGrVyg44fCFUMG4/SsYXdvzwww/2e8Ms5TXkMDOrmPE4ci8+eZ1X3NlYAAAAgJLwhR1mzI7L+/Sxx+QwDQZCGXIYQQs6DFMZfsNJb6699lq7q4o5Ncz2QCrLwRQWFq4TVqXmggsv0oDEP+rGWwbpDwMH6fobB6rPVdeqWfOW9n6mRcfnn36iXzZv0vatv+h/yV9q7epVioos3Sl3L7jgArviZbqDGObx+fe//223oDAhgGkZYCpk5sXje+xMxcxUwH389/GFBaZlganQm+15Mcf6/vvv7YE9TaU8Nja2wPFCzFS7gTCDk/ruyyuvvGJ3dznbr8+ZuQ7f/TCnoeyqUhqPdX7M420eT7OYAS3POKN0W/0AAAAAbvHzli1FXlC+2WGHGbPDqgPGxcVpyJ13hjTkMIIadBgLFy7Um2++aZd9g4+adbO9rKWnpcqT7fGOwxEdbbfwqGItcXHV1ezMFkro/Xs1btrM3veH9Wu0YP4H+njObH234mvFxMQqIjLCesJyztpQEqZVxZZcb1xfJduEAO3bt7fLpiLtzwwC6lPQPnl1cfExlXhz/mWXXWa3ACkNpsWGv+PHj9uPsc+9995rX69p/WBmLwml0nis82MCDp/CHneUDTPujulKZcIsE3iZxQxCaraZ88qTX375Rc88++xpi899999vz7ziv6xbt845FwAAoHw7q3nzIi8o30ydz7Sg37ptm/1D94UXXuicEzpBDzqMjz766GTYYU7NenmwK+VX61/vuBxm7A3TpMa3mFlVTAW1Zes29r5moFLD2tsORs5o3NgeX2TXTnMMdzAtNQprVbFr1y671UNJx50w3WhMNxhTIfvvf/9L9w6EjC/kMMHGhg0bNH78eHsx5fIYdpiWUOZ9knsBAAAAyhvfmBwRERH2kBVmNpa8BigNtpAEHYYJN8zYEeUl5DDMgKOm1YGZLtafWY+qEq3IyCjFONPHmjDEF3Y0b9FKZzRppn1792jb1p/tbaXBVGhyjwHhGxB0586d9vlG7kFCzXgcPmY/I3dwULdu3ZOXz4tvoFAzZkpBL0LT1cMEIiUNJszYF1u3brWP5xtLJJRK47FGxXTfffedDDn++te/Ki0tzV5M2Rd2mH2CKeccTmWnvNwOAAAAVHy+kMPwjcnhG7Mj1GFHyIIOwzQPL0/S0lK1bvV3iq0Wd3KWGJM8HTt2VJ99+rHmzH5XK75efqo1h3V+vQYN9Zuu3RRVpYp9WdP9pbQkJyfbTelNMx/DVLLN4K3mcTPdKkwgsGfPHnubOc+0qjAtI8xAqj5mP7O/eRH5Bvc0IYIZk8IcPy++Y5mWFaYflTleQbO0fPzxx/a4E6bbiTm2uaw5NZcJNLAwAz6a8MVc1ly/GR/En6/LSLACkNJ4rFExLViwwB541Bdy+PjCDnOe2QcAAABAYPIKOXz8w47uuep9wRJw0GG6c5QHpXU7fNPIrv1+hTb/9IOqV68pT3a23Zoj3arw/LJ5o7b9skV7dqec3Pfsc9oqoc+Vqle/oX5cv8667Ep7u+/8kjKtG8ygoabSbyr6gwYNsls9mJYwPmbaUtPawIxp4WuFsXnzZvvUx+yfkpKi/v3728cx424sWbLk5MCbuZnZRczAob7BS32ztJgKfl7MMWfOnGmXr7jiCj366KP2afXq1bV27Vp7e2HMi92Mk2Eue8stt9ghS25m5hcT1pjpXYurY8eO9u31Lb6pYUvyWJvHFhWXGSDWdFXxDzl8zDZzntknqErpM6PEysvtAAAAcCHzc/mvO3Z4VwJgwoHdu3c7axVHQSGHjy/seP3110MSdnibKoxY4znz333tYn4aNmhQLgZVNN0mdhXw5Ddt0sQpFc4EFKa1hpk69tLeV6h5q9ZKPX7MfmI2b/xR+/ea6wlTzdp11DC+kc5o3MSeTvanH9ZryaefWPulnTwGQs+09jBBxf333+9sCb7XXntNP/30k92aBcjP4cOHdchagsk3hax5PZa3KXEBAADg9XZSkt01PpCZGE3r8YkTJ+qr5cudLRWD+WE6yrrtgUwha36Ef+nFF9W+QwdnS+n65aa50vgOTg09gKCjTu3aIZ3+Mz/mF/b9Bw44a6crStBh+IKK8PAIdezURW07nKsaNWt5Qx3nx05zvtlvz97dWr/me61dtUJZ2VmEHGUslEGHad3SvXt3u6WLCTn8Z1YBcgso6LA+P6wPEGcltPjsAgAACJ1AZx05YNVzy9twDxVNkYOOmJgY1atb11krO3v37VNqav7jYhQ16MitatUYNT2ruRo0bGQ3wTFMyw0zQ8u2X34p1TE5UDLBDjpMNxYTbPiY7j2myZWviw+Qn1C06AAAAACQU5GDDvPrX6P4eHuwzrJixuf41ZlVJD8lDToAoKRMyGHCjsKUVcsKWnQAAADAjXxBR8CDkZovxoePHHHWykZhv5DmniYWAMpCoCFCWYUNhBwAAABwsyIlA0ePHi10cJFgMd1VzPgcBSHoAFAeRBax5Vuo5j5hjhUAAABUBkVOBswYGZmZmc5aaJguK/v273fW8leW3WoAwKeooatpX2FCCNNyLhh8x6UdBwAAACqDIgcd2dnZdthhTkPBXM+evXsDqgBUiYpySgBQdoozFbcJIYLRpcT+7KSrCgAAACqRYvX1yMjIsAcFLWj2k9Jw/Phx+3rM9QXCzAwDAGXNtOjwzdpUVCaYKI3WHfblnWMQcwAAAKAyKfagFuZLtGnZYVpbBBpEBMp0jdm9Z4/dXSXQL/slqVgAQGmLLWbwalp12MFECVth+I7BwKMAAACobIoddPikpaUpZdcuO5iwBys9ccIeU6MozP7mcuby5jg7U1KKPOhpjerVnRIAlL3Y2NgSjRvkH0/Yca8T+pp/fQGwOT0ZBfuXDQIOAAAAVFLeb8Ij1njO/Hdfu1gRRUZGqlF8vLMGAOWDmSlq/4EDzhoAAACAYPrlprnS+A5hJW7RUdZMs+x6des6awBQflSrVs1u2QEAAAAgdCp80FG/Xj1FMdsKgHKqbp06jB8EAAAAhFCFDjrq1q1LBQJAuWdanVXlswoAAAAIiQoZdJgZVho2aFDsWQ0AIJTMZ1b9+vUZNBkAAAAIgQoXdFSLjbVDjipVqjhbAKBiqFmzphrUr28PoAwAAAAgOCpE0GHG4IiLi7NnVqlTpw6VBAAVluluZz7LTOhBYAsAAACUvnIZdMTExKhGjRr2IH5nNGqk+IYNVbtWLQIOAK5hurGY1mmNzzjDHsOjpvWZZz77AAAAAJRMmP3viDWeM//d1y7mVrVqVUVXqWK3qjC/PkZERDjnAAAAAAAABF9GZqZOnDihDGtJtxZTzu2Xm+ZK4zuE5duiw7SeaNCggT19q2ldYX5pJOQAAAAAAAChFhUZaY/ZWatWLbtldO3atRUW5m27kVueQUdctWr2BU1LDgAAAAAAgPLE5BZmmIsqUVHOllNOCzqqWTubZMRMhwgAAAAAAFAemZ4oDRs2PG08zxxphjnTDPoJAAAAAABQEZiJTPzlCDrMmfn1cQEAAAAAAChvzMQpZmxRn5NBR3R0tH0mAAAAAABARVI9Ls4p+QUdhBwAAAAAAKAi8h9n1NtPZcQaT5eFtys2JsZeBcqDrKwsZWRkKDMzU9nZ2fa6WQAAAADkLSIiwq7wmVMzBmNUVJRdRsXh8XiKPKREcS7jRl/2eE0a3yHsVNcVWnSgHDDBxpEjR7Rv3z4dOHBAR48eVVpamk6cOEHIAQAAABTC92Oh+Q5tvkub79Tmu7X5jm22o/wrTmBByJHTyaCDlA9lyXwgHzp0yF7S09PtRBIAAABAyZnv1uY7tvmuffjwYX5ALGfM81Pa9Z9gHLMiOdWJBSgDpkuKL2kmYQYAAACCy7SU9rWcNt/FUXZ8QYRpjVHaLTJ8x6usYQdBB8qM+WA1ibJpVgcAAAAgdMx3cNOdhbCj7AS7u0kwApSKgqADZcI0lzt48KA90CgAAACA0DMtqk13FrqyhFZZtLKobC07CDoQcuYD1YQcgaTHJoE0I0XHxMSoWrVqql69+sklNjZW0dHROaYRCrXK3O8NAACgMnPL90B+gAwt87opi1YW5jorU92FoAMhZd5cpj9gYW8yMziuCTPq1KmjmjVr2iGHCTtMsOFbTNDh26dWrVr2+cGU122urE3BAAAAKrvc3wMrciXS9x2dbizBVZFfIxWN9905Yo2nx5d32UUgmEzTuIIGHTV/MEyAUbVq1WKFCCaJNh/SJNIAAAAINVORrcg/hJmW1OZHRgRHYK8PE4Z496leLUptm1RR01pSkzoRqlfN2hYdpqMnPEoNj9H2I+Ha9Mthrd5wUIeyouzLWFdiKlXeciX0ZY/XpPEdnEeAoAMh4JvLOz/mTW8+WCMjI50txWM+QI4dO1Zqg5xW9D9YAAAAQKDi4uLsHx1RFrwhR1xspK64pKmuSWimOtmHdHjHLqWeyFJmZpaysz1qcGZDNWjVTIo8oc3b62jOsQv108IP9FPyFzqeaeotp8KSvLi5fuMLOui6gpDwhQ/5MV1VTPeTkoYchnnTmg9o0zLEXG9JEHIAAACgMjHf2Uv6Hbq0tGjRQg8++KCefvppXXfddaVSVygLgTye3ipHmNo0r6G/j7lYDwzpqOaNYuQJi9ThdOlERpaUma7ataNVr0ld66AZ+nVnnGbH3KT0jheq7X3jdNsf+6p5LdOyPcz6L//rNPWb8vIcBwtBB0Li+PHjBb6ZatSoYYcdpckEHSUZt4OQAwAAAMVV2hXJ1q1bO6XgMrfbfHcva6ZVyR133KHGjRvb3+svuugiXXrppc65oVWvXj07dDGnRRVIncKEEubl0uXsOP31L53VpEGsft1VV6uyfqcTUWeodrQUqSrKrNtJh5pco5/CL9WPRzrok4grdbxmvDwHDuvgiSwduOA2Dbn6bHVsbF2v3aKj8oYd3kecrisIIjNehhnJOT+mu4rpD1gYM7tKw4YN7YFJd+zYodTUVOec/Jk3r7nu4kyZFciHEgAAAJCf0vo+ed555+n666/XU0895WwJPjPgf6hmNzRhRtu2bXNcn6kj/Pa3v3XWvHbv3q3vvvvOWfPat2+fvv/++wLHASypRo0a2T+gmvrHzp07na2BKfw1YMKGMDWpF6m//rmVmrVsosPHq+u/4VdprSde1Xd+p3Yn1ml/04u0t2ZLpUVUtfYOV8axQ8qMqqKoCOvY4WEKy8pUenisOm54S802/VPjP8nQzgPWsU2Ykc/1B7u+Y1rs33jjjWrQoIH++9//6quvvnLOCZ4yG6PDNDf63e9+Z9/RijJgpHnyzzzzTP3888/OlvLLBAFnn3226tevr7p16+rAgQP65ZdftGbNmpNjVgwcONBuQTFlyhR7PdhM87f8QgmTzpqlIOZDr0+fPurUqVOO/oLbt2+33yzz588vMPQwIYd5HIrCvOkNgg4AAAAUV2lVJIcPH6727dtr9OjR2rRpk7M1uEzF3vzAGGznnHOOhgwZ4qwVj6mnTZ482VkrfUENOqzzo6LC9MytZ6hT2waqEh2ntWFdNWVnex0+eEg1YqqqcZtWqlKjqjwn0hWmbIVZ9Zuw8AhFVo2RsrOUnZ4uRUTKY9W1s7esUa9VE7Rzb5pe+my3MrKyyyzouOKKK3TZZZfZZRNEPfHEE0HPAHxBh7evQI97nmq2da5dDCYTcvzxj3/UBRdcoCpVqujHH390zinfWrZsqWbNmtlTmZoUsTwyj63pt/aHP/xBbdq0UdOmTe2mVU2aNFGHDh108cUX211DzIfAlVdeqTPOOEMLFy50Lh1c+U0na95UJnDJ781lPkzuv/9+JSYm2vcjd588c9l27drZbx7zgfPrr7865+TkS4aLmvKG9Zuk2S/frQuOvqMFG5yNITR82kI9fW1DvfXhMnv9+omz9fLdF+joOwtUBjfHNW5+erqG9YrVB5+tcbYAAAAET0krkqaSffPNN9tl86PfN998Y5eDzUw1W5Ju4IHq3LmzWrVqpbVr19qtNTZv3lykxbQGqV27tv1DerCYeqBpge6b4bGoCnwNWOdd0SVOfbvW1XGrulI1trbmHuqoHw5VUXRWmmrH11WdOrHKTktVlGn9Yf1fJSZOEVbhyA/fK+Xz/2rPt8t1aOt27TmUob0nYhW74we1ijysvalZ+vVwwcFCMIMO093H1KUN83pavHhx0Kcw3tqsr/Tlq09771UIWnSYyubgwYPtvmVbt27V3/72N6Wb5KkCMAHBueeea1es9+/fr9WrVzvnlA/m9t15550nX0TmA+J///uffVtNoGRaRHTv3t2+/ebDwLT2MG/Whx9+2N4/mApqTWES4vw+PM2HuBl0yARM5hhffvmlPvnkE23ZssU+Pzo62g5vrr76arsplGFeU+bNkxdzDPN4BPpGttNNE3Tc01KbXr1ew2c7Z4SQCTou1yfqPXiivW6CjntabtKr1w9XGdyc/LXorfuGXKWOjWpaH76W4zu1et4/NWX+D/JvZ1Pj0sEacV0PWbvZDm1drH+Of1Mr/XcK6Fg1dOngEbquRyN5D3VIWxf/U+PfXJnj+vydc9dzGtHlkOY9MFpRI6arjxZo0JNvO+eWtnM0+LkR6hG1QlMefFn/c7YCAIDKpzR+MR80aJB69uxpl00l0bTuKGpr5eIyAUJpj6OXm2m53bt3b73zzjvFCnEeffRRu5tNMOs2xW3REcjzX6tauJ5KbKCmDeMUHllFmdWa6/8O9tW2/ekKy85UeNUYhVvHOOvM+qoWG6XomrV1eNN67fjflzq27WdVD8tWVJUopVu3LbtWQx0853JdpqW6LnaxNuyWJszercPHgxsu5MfU2fr37293Q/r0009D0tAhpLOuVOSQwzCVZNPv6/Dhw/abqGPHjs455YOp7JuQw4QAzz//vP71r3/ZL6K9e/farRzMi2rixIl2yGFSNRNyhEp+z7N50xc0bdXdd99thxymz91jjz2m11577WTIYZjjmtT2oYcesgMQwzR5M/cvL+YD2oQ+CNylw6do9jtjdb2znqeY3vp/wxLVpV6GNrz3ksa/lKQv99ZUxwHDNOLmeGcna7eLHtIzt/dQzUNfKuml8Zq6YJPUrJfuf2awTj5jAR0rRhc99Ixu71FTh75M0kvjp8p7qPv1zOC8n3upg/q0qafjm77U+/n3cAIAACh1ppKbV8vmQJmZBM0PloYJN0y9ytcVIBQqUp2tPAok5DqncRU1rhttTx8boWwdDa+t/Tt3y5ORrqgate0WHFVjoq3XQlV729YPZmjze2+oxoavdcHen3T/kFv0zGMP67zzOkj7dyjshy/0w94qOh5WS62tY599RrRzTaFnXj9JSUn2kAmh7s0R9KCjooccPuU17DBdUMwIxGa8CvPY5k4YTfJoQhCzX3Jycok+aIsjvz5YJnTI741v+umZgYdOnDih8ePH22OM+AwYMECvvvqqPbCNYZ6Xf/zjH1q6dKn9WjPjj+THJIqBKmny7ga14+MVV1g41KurWsaaYOIJPT9/pX5YuVDTnpyiFYei1KxjH3nb68RrwFUdVfPQCk15cpoWrvxBS98erfELtiqjXhcN8A2eHcix4gfoqo41dWjFFD05baFW/rBUb48erwVbM1SvywDlOQ73pVepTc1D2jDvM2dDsP2gaQ8P0iBacwAAAEtJvleaWUZM920zEL+pMBoJCQmndekOllCOqWjqV0X5vl4RBFL36nBWVUVEhtsDjJq9sz0xOrL4bUWsWSTt3SGlHlXVjKPa9/WX+vnfb2j3N8nqen4X3XpFgs7b9K2y1q6wW0yc26a1DuzYqqjUfdqTsl9LfoxQbGSEzm9ZcPejUNcPQyWoQYdbQg6f8hh2+Jqxffzxx3l+EJmA46677rIXEwKEugKf3xunoCZwpvma8cEHH9gBTm6mJYh5bfn75z//ab+2zJgdZjyPvAQyswuKI0MZx/2bSuy1+xfKNyZKvOmKYm1d/Z78R8VI+c8G7VSsmnW5yNliFHys+Ks6qpG1bfV7OY6k/2zYKcU2U45D2WJ0Q4+Wit25QjkuAgAAUA6YwOL888+3W2mYJv6mhfKwYcP07LPP6uWXX7a3GWZsvRUrVtizCZofMs0Pf88995xGjhypoUOH6pZbbtFVV12lHj162GNWlJZQVIKPHDli17PM9/g//elPxQ5xTDeb8iaQutdZ9aOsr7rZys7KVEy1OK39dqU6tGymVjUjFfHtfMV+97FSP5utvV8tkU5kKqpqjLp3aq+Fq77Xnuwwpf6wxjvuRVaGTtiPpUfVorKUvKOa/vZVTUWE5d+K3nDrD7xBCzpMRdT0JzMhhxmwxXQzMBVQ07qgsKWsmFYChS2m24dpYWAGtjRhhxnosyyZgXvMbfnpp5+cLTmZcSnMB2NeSyiYD6285A4q/HXp0sU+XbLEejPn8t5779nzaZv75c98QK5cudIu+y6fW+n0Lzxff3hqmmbPO/U4zps9TWPvvlQNnT18Wl41UlPemX3qMZ83W9NGetscnHv9U/Z583znLZyttybebR09AJc+oJfemXfyuLOnjdRVua78/D88pWmzT+1jX/fYu3Vpjv3O191j/e/LPM2eMlyXXj9Rs631e86Lk+LO0z32ebM18Xop/uan9bfpf9OoK51keP4CrT4Uq44D/p+uPMfaFhOviwbfr671Dmn1gv94x8zoYsbSOK6dG1Lsi5yUukmHjkuxNZt51wM4VhczwMfxnTr9UIesa4iV71AnxQ9QF+sjZdOK95TrIjnEdL5B/2/sZOu+Tdd0e5ms50bdpt/WcHbwMWOIjH3h1H6Tx+qui27T01Z58kOnpj8zA55Of9o7aJjhWzfjlIx9wbmsdR1jH+p9qusOAACodMwPlaZif9NNN6lv3752S21TvzD1JtNtxTDjQpiW2aYyu2jRInub+QHPTDxgZlv0BSU33HCD/SPooUOH7H1KQ37f5UuTuW9mNhnTzd50XTf3pzhM6GMmMSionhFqgQRF9WpEKjPbo2ox4Tp02KPl3+3Wnffdp4tbN1ZY+jFVseowEWEeRcVUkxlpo0p0tH56faK+/ni+Iq26qaeK90fgdWvWyRMRaZ40hWecsPaP1sbjtbXo11PdyfMSzDDL1J9NeDVq1ChdeOGFztbQCNqr4NZbb7Vn/zDMm9RUTn0tCwpbyoqZnzqQxbTk8LUOMFO4mqmeyooZ0NNM35rf6LWmL9+CBQvyXEIhv9uVX+hg7o9psXH8+HF7jJHczAe4mZbINwCpP9/0v+Y5CY7zNXza0xpyUbyObvpEU8eM0Zipn2jT0Xhd0O9hjR1+6kO54fUTNfHBXmpmVa+X/vsFjRkzVXO/22+9GbxJc8sLWqrO/vVabJ/3gv799VHVOa+fHhh5rn1+/prqpocvVbX1s/SCdcxP1u9XlWa9dM9jf3DOt27l8Gl6eshFij+6SZ9MtW6j2W/TUcVf0E8Pjx1+Mky5fuJj6ndBHe1fOtXaZ4ymfrJJR+PiVXvZm3rOWp+1/qh0dL1mmfs55jm96Z38JZf/6eUnkrQhqo0GjHhV018dpyE96mnngkl6fqnTMqNmlKLslhre1VP+p53mKa7XSN6IoPBj1TTvu4wMnX6onfIeKudc6x0GdFGjjK3aMM+/lUhOZvyQcfeb7i17tTzpJY0f/5KSvtyr2Ja9dPczD+kiX2u/mIv00P3eMUQ2LTbjg1j7rchQx8QeauTsUqCaXfT4gJbaOs8Zf2Sr1KjjAN3uN5YJAACofL766iu7u7b/bB6fffaZPcjmAw88oHvvvdfu0m3MmTPHHsvODEg6YcKEHJcxPxLmPk5Jhapbg7nNM2fOtMsl+SHZzOBSlnWz4sjOsOpLJ7K0/WANjf/giI5mV9Ohn3/QniWL1Dj1gNLtelO49VyEKcx6PtLDI5Wasku/q5qtVl0vUqtrB2j1mtVavPhzu0VIeO2GCrMuk53tUdXwTFWJLXiK4GC26DDjy5gwznStueaaa0LW5coIWtBh3rC+BNBUWn3T/wSylBXTFCzQxTdVqbmPRZ1LuTSZD72iDLJp0j7TNaRXr17OluDK742TX9Lq65eXX39Ak26bWWTyus/mdWYEq29fwwcG6/JmVZSy+Endev9EvWP9AfrsnYm6/9YntTSlipr1uk3euOEPemzIeYrb/7Vevf9uPTVtnvXH6h29OHKwBo/0zpcye+St+sPdIzXRPm+epo2cJpODxLf0dtvJV1wd7V9wlwY/NU3zrGNOvH+Mvk6RqjS9wDtoaMMHNPjyZqqSslhP3nq/Jr5j3UZ7v1v15NIUOxS5zclEWtaOk/Z/pylj37H/mL4z8X7dOvw5Ldv1vZZZ6yn239MTSjH387Nl+n6XlPL2k/rToD9p9HwnODCV/2cS1UZbtXjqeOuP61Qt2HBIjfo8rqdv9m+rcEh7vQ1u8hfosQ7tVWGH8vqt+rSpWcggpB00ZEBH1Ty+WlOHP6lpC1fqhx9WauG0JzU8aYOO1+yoqwZ4g4hzbr9OHWse1+p/PqG/vmnGB3H2m7fVPr9QNaVNU0bqNXMd9vgj/9GGjCg1axOa9yIAACi/Nm3apCeffPJkt20zNocZs850mc/9w2FaWpp9evvtt9s/KJv6iBm/w7QYze9HxorA3FfDzBRZEqYVQUVSv1Mv7ah+kaZ9W0fbdqXq2KED+nrqFH39xVLVqxajLJM1Wc9rVtoxq5KUociIKlpbq5m6dOygLdE19P6SZD0/4QVlpR6Tp0FzhbfsJM+JVEVGRijM2jfLukxBghlm+c8OZMKsULQQ8gla0PHDDz9o2rRp9p0xv9Cb4MOMthrIUlbMtKyBLGYwINMiwXyQrFmz5rRuFKFkZiWJjY0N+A1tmoOZ6Zs6derkbAmu/IKO/F7kpguKYT7gijqmhmm+Z5Rmcz1/fVuafhEbtWxs7mmvvtGU9XbaoAuuslavv0BNq1h7LntR83Z59zhdS131wFi9ZL1H3pk9T/PmPaYL6jhnFWirNr3of9Dv9d2uo3ZLEbvTV9+Wsm/lsrHWrcrpmynrlaIqamrfSOsP6gHrcnUu0MMvDdf15zp9WnbtUr43OQ+X3p9oVf736stJT+rNpT9Y7/ulevuvT+g/9kwoibrh5NhHsYrNr+FCRobMx2/Ax7Je7/kfyu+D/NJeahlbyCCk8V3VrKYZP2SefA1QfFIXfqlNx6VGLU0QEaOuzazX197Vmpdrx9T5mxRQ1Hloq5bnGCdkobaaC55s0QIAACozU6cwXTh83bGvv/56uytGbg0bNrRbOJtT80OfmXXRdEMOhlCO3+Ab/3DPnj32aXGYH0vXr1/vrFUMX244qlnLjyo8KlLVIjK19+Ah7d6wVr9p01Lh8Y11Yt8uhVWLU63zfqOouvUUdvSQ9sQ10MSDUfrHyo2a8+HHSjuwV54a9RV+/pUKq9lIB9I8OrJ5nbJSjyoj9bS20CFjuiWZcRfNa9qMKxOqFkJGUDswmXEjTNhh7pDpd3buuYU1yy//TGXatCgwVq9ebbfuKEu+aXrM6MuB8AUcoZreJ78uKvmlzaai6kuyi9rszHffNm7caJ+WttrVqkhHj+U51sMupzmhTEOTlrUVp6M6tjW/yOB6jX3nNT3Y9zw11DFt+nqpFrw5RksLGkTC5+gBWfX+/NWuZt0E67rzvpHy3kpva5jZw8doqmnl0fZy3TPpX5r31kTdnXMQj0J0VsdGsVblf4Pm5WiIlar5m6wafFQznWqskMf4Gdbl69W0TuwWGkU4VmxNO8zJoXM902DCOpSvrUeAg5A2q2ndMun4oR+86zn4p98dvbf1+CHltWdAAm6JAgAAKiszuP5LL72kVatW2esmzMjNtF72tXoYO3as1q1bZ5eDoXTGuCuY6ZJ+9dVX213UjW++yf1zXWDM5V588cU8u7+XZzPn/6CsExnKOLBbqQf2yRMWqX21Gqr2GY319Z4jimhyppre+mc1uLq/mibeqTq/vUgnDu5R1vGjqhruUbVqVZXZpL3CfzdIETUbyJOVKc+Z5+rg9p91YN032vNT2Y7I/+WXX9otjkJdbw5q0GH4hx0mkazIYUd5CzmMZcuW2eFAt27dCp0Fxjz2ZoAj09zNTMcaCvmlwPl1TTG++OIL+7Rfv34Bp8hm0CLTWsUM1mRa3eQlx6/9xXDMpARx1fJsTdDQ7kpzQidM6yzvjqqWX7ODu/vogjontHHWHfrD4Ps10voD9eI7pdQqqKDrbljFjjhO2DfS+EbvPDVY1/e+S8/9e6lS4s5Tv4ef0t0BZx1RKrjRjXW+CQdWmPEzYlWvzcnmHV4xbezwYO/OFdZKYMdaYQb1iK2n0w9lgo69sg9lBDgIqRkN1WTcsTXP8a7n4L1BGRmmhZD1x8e8fPJqTRJjxiABAAAoPWZmFWPDhg32qZkE4YILLrDL27Zts7/zGr79giUULTrMj5VmEFXTtd3UUYrbIuOdd95RSkogvxyWL4f3pGjvj99p9w/fKysr0x5sdKMnSq+v/UXH2/RUtV4DlXokVVnHMxRRs7rir71Otf5wn8J63KTsrv3kSbhDVS67VZE16yk7M0PZ2VmKqNNE2XG1lG4d71hG6LqLlCdBDzoMX9hhVNSwozyGHIbpy2YSMtNCwkwrdckll5yWvJpBX8wH480332zvF8pELb8BZ8zYIvk1XTIDpZouLGbgGjMlrj/TBcoMVOTrw2eYpPvPf/6zXf7www9PDtaUW37bAzVrg2kp0krdR+YeCfp83d3Wqv7u36TPTC+JWRtk79l9ZN6zqJiWITqhYyl+LT7O76eW+QUjRVHAdZ9/d1urkr5fm+wb6W+TFkx7SoOXbpWqxKtld2dzoVZr606r9l+vja7KMXVIvG5uY4bn3KlNi62TH77U1kNm4M3EHDOMtEjsombaq01fmjYSgR3rhy+36pAaqWNijiMpsUszae8m2Yey2IOQHrfW8x+cw8u5bfU6XnVq0FFHTO8eahmboa0bzJ1YqdU7j+dx+8z9MFPeAgAAlA5T4W/evLldNqHGH/7wB3uQ0XvuuUdPP/203erZDBNgnHNOXj/WlJ5QDh5pvsf/5z//cdYqj6OHD+nQnl2KiLTqcBGRijz3Mnv2lKhm7RV9xtk6nLJbG385qM3f/aBNs/+j//3lbm3716sKa9VZEa1/q4h6TaSsE3bI4Qm3jpGdZR0nSmFxdXUiy6MTntB1P8qLeQ35hhgIJW+NuMc9TzXbOtcuBovpc2amZTVTf5qWB7t379auXUUZDaDslNeQw8c8llu3brVnhDG38+KLL1aLFi10xhln2FNNXXfddXa4ZPrwzZgxI6T91swHtW/ApNzMgKJ5NYczrT1+/fVXe5ReMz1x06ZN7VYaZrvp1mKa55lmfcZvfvMbjRgxwp6txQzi9Pe//z3PbjEmVDED4BSpX1jbPrrpgjo68PU7WrBBOrZ8lxpe2lOdOvVSnwvOUJXUKqrf9QY9NGKQusSn6rvpj2vKhmNmR+1qeKl6duqkXn0u0BlVUlWlflfdcO9DGnxphD5cXlN9L2quxi3PU/3UE6rX848aMaStap6IsY65SW996J3epPu1t6mVTq237XOTLqhzQF+/s0DebN/L3m5d/6a3PtSy/K77oREa1CVeqd9N1+NTNsi6lRo+bbYGXxivmKwY1W9/mf70uwvUuMoOLXtlnr6xdoi/tJ96Nm+spi2zdOK8Abq23mfafP7Ten5Yos7L+K+W/JSqdfsbq0f31mrTvYfamAllGnTVVbffqkuaVdWh1e/opYXblCnr9Vm7iy6x3vddu9RTxqHjatTrbt3Rq4nSVydp0gdmn8zAjrV7q2p3ucT6DOlqz35y6Hgj9br7DvVqkq7VSZP0wTbTUuhSDbq9q2K3ztOrS70z8fjr2Os6tbQe1w8+M834dmv1kZbq0bWjuvfqonoZh3Q8qpG6XHe37r+qpaK2fqopr66UaQPz885G6nFJG+v2dVWzrDQdCm+mPkPu100to5RRtap1qG80P3lHHtdx+rqPvT12t76ZnyzvJQEAQGXXsmXLkxMHmFlEzPd733dmM3uF+Y5sTs14duaHvOXLl9vnBYMZ7DS/SQRKi7m/ZjHddUwdoKhM3ce0bAnWOCVG9erV7cfb1EeKM6tNgS1jrPM8YeGqFlNV4VY9ptq5Fyuj81WKOqu9wqJjlLlrqyI+fkPp77yojP/OVOfIGJ3nydTeuNpKrdVAYRlp1uWt14f1PIVZVZ2w7EzFxlVT5C/favfOHcqOyL/tsakbBbPVjmlxP2zYMPvHeNMqae3atc45wbO1WV/py1efDkmLDh9fyw4zEGVJuxGEknkBmKU8hhw+ZsyNiRMn2oGAeXxNumteUCbwMAGH6eJipqAK9eA85kM5vw/H/AIQ49tvv9Xrr79u35euXbva981MUWz67pnlxhtvtOfKNlNrmcFYTchh7l9+ryvzoZTfuCB5yTsQ+UYTRz6nWV+nKK7l5Rry2GN6bMjlalplqxa/MFzDZ58K7r6ZOFLPzfpO++Na6vIh1n6PDVGvllV0wLqdWvCi3ly8VSfqnKe+Dz6mB/u11IEFz2lpKfVe8V7310rxu+7Lm1bR1sUvWI/X7JODjW7bdUJ1LujrvR8P3qS25n68+pSmODt89uK/7Rld4i8aogf7tlScSUdyW/Oanhj/nlbvjVWbXokakthHXesd16bFU/TE80vla0+R8vZ4TZq3Qcfr9VDi/SM0pE89HV+RpJf89gnsWCl6e/wkzdtwXPV6JOr+EUPUx9pnRdJLp6az7d218EFI/aQufV5PTFmsTcfrqUfi/Rox4n4ldq2pQyve06Txb+vkkCGbp+mJlxZrq7VflwFDrP2GqEfNnfrPS8vtqW0BAAByK9KPbA7zQ5+PqcCbivW//vUvjRo16mRLDl+XFfOdP1gVVfMdPhRjdLhZIM+NeY2kZWXreJZUrUkzXVJrlxo3rqfMqGrmTEXE1VT2NwtV/cCv6nnx1Tqr1bmqXb2uGh/Zo+ywcHn/s2RlKjI8S+lRNXRx3C86K3KHTkRE28coKyao882IaYYaCNbsmHnxPvIj1nh6fHmXXQwF88b09SurKEyTG1NZrihM+lq7dm171OKCAoVQMB/Oed0G86Y2t7GgJnGm2Z7pktOuXTtnS07muGYk37lz5+b7/JjrMTOxFOX5M5cJRZ9ElLYY3TDqRV0V+6UeHflmweNzlJZz7tJzI7oqY/E9GvlmxfpcAwAAwVWc75R/+ctf7NbY5ge/zz77TLNnz9axY6d+cTKVR9OdxTdQqZmBxXRxKW2mzmZaTQeb+XG2b9++div14rSWMK0GzPf8xx9/3NlS+ho1anSyDrtzZ0Dz7Z1U2GvAd74Jlc7u3k1/bOrRwQZttPSMy/Xj5l2KqVFd6d8s0Bkfvq4ev+mjbE+GLj6vkWZHN9WCmuequrLsKWij42JVNaaaOqWv1Pn73tdz72/SjgPZ5grsViN5CXadx4wjacZdNMxUs+PGjbOvM5i+7PGaNL6DaeNiCUHXFX8VKTDwKUprgPLANGMz41iUh8favGnzCjrMm8p8gJvph/NjWtAsWbLEbpJnptI1gYV5k6xYsULz58/X1KlT7SZQBT0/5gPJ19WlKIL5pkeQxCfqlgHNtHvJJM1fF4rXfowuuv1W9Wh4SOvema9v9jmbAQAALEX9Pmn2v+222+zWymbaWN/EA/7MgJuLFy+2v9+a1tsmINiyZYtzbukx3TWC3W3FMLOktGnTxg5uzI+gRV3MbTQ/fPpmbgyGYHZdsc+zKv8mAIjKSFWHalK9/Zt1VvUM1W3ZRruPhSs9/mxleTJ09u5f1OeyDqpRK0pJmc2UHldHkdkZqhYTqbOqHNHlGUv0m2OfaMpHW/VTivVduICQwyeYdR7znJixF3fs2GGPvxKKH+B9XVe89yrELTpQ+ZgXeH5hg+l6YpZgMIGPCUeK8wYOdsKJCua392nsgJraumK5lq/YKjXroq49eqhrs1gdWj1Vj/p3wwEAAJVecb5L1qpVy27RvHJlYJPSm7E6zAD+xZ2SNT+mi4Gp3MPL1FXM42HqNGZYgKIqymuhYbVIDbywiWq1+632xjVWemqKvs3uqC2eBjprQ7Jub3Bcn3sa6vNabVUtdZcUHqHwuDo6++hXar9nof7z1T5t2Z2uMHms//K/TrfWdXwtOrz3jKADQWZabpiWGPkxzeJ8fQ1Li2nlYa7TvImBEou/Uvfd30cdG9U8OZ1sxvG92rr8Pb305v90ah4gAACAil2RNANHhqI1R2USyOvBt090VJhq/uZy6ezuujQyWeeGrdXGzLP0S/iZOnwky6o3hSs2fZ9+qN5NEXXOVOqerTr+/SLt/3axIuynzdR/3BdiBIKgAyGX31gdPiY5NoFHaXyompYcJnEtachRkf9AAQAAoGxU5O+QoRqbA/k5FVKEV6ulmCbnqGfDFJ0Xf1RVrGpSlapVlHHsuOZn9tKP6Y2Vuelrpf68Vtnp3nFcKmtLDh+CDoSceVMVNiioCTlq1KhR7Dm7zXWY5mRmKa03MGEHAAAAKgPzHdx0h+G7b/CUZd3CXLdRGYIO2iMhZMwbyoQYBU1T5etuYlpjFGUKYnM5E26Yy5rBR0vzzes7lu+DAQAAAMhLRf6+aH5wJORwv8ry/BJ0IKTMB6gZyKegN5g5zwxc6pthxQQX+f3R8I18vH//fjvoqGiz4wAAAKBi8/+eWlErkeZ2E3KEhnmMyyoQq0zPL0EHQs40iTMjSgfSPcUMYmrmDTdTy5qpp3IvZvrZUExTZPDBDwAAgNwq+ndE09raTNNaUKtrlC7fa4YW48FD0IEyYT5ITWpcpUoVZwsAAACAUDLfxc0PkMyw4k4mSKmsYQqvaJQZk2SaMTvi4uJoLQEAAACEiPnubb6Dm+/ifA8vO8Fs2eE7ZmV9fgk6UOaqVq1qz9Vtppel+RYAAAAQHOa7tvnObb57m+/gKB+CEUaYY1bmEIugA+WCeROaQUpN0znThK4yvykBAACA0mS+W/u6qRQ2MQDgBgQdKFeioqLsJnR169a1P4RN4mwGLTX9BvlABgAAAApmvjOb8fDMd2jzXdp8pzbfrc13bPNdGxWTf8t3WsEXzltzHLHG0+PLu+wiAAAAAABARfNlj9ek8R3CaNEBAAAAAABcg6ADAAAAAAC4BkEHAAAAAABwDYIOAAAAAADgGgQdAAAAAADANQg6AAAAAACAaxB0AAAAAAAA1wiz/x2xxvO7lQ/ZRQAAAAAAgIrmv52fl8Z3CDsZdHjGtbeLAAAAAAAAFU3Yo2vtoIOuKwAAAAAAwDUIOgAAAAAAgGsQdAAAAAAAANcg6AAAAAAAAK5B0AEAAAAAAFyDoAMAAAAAALgGQQcAAAAAAHANgg4AAAAAAOAaBB0AAAAAAMA1CDoAAAAAAIBrEHQAAAAAAADXIOgAAAAAAACuQdABAAAAAABcg6ADAAAAAAC4BkEHAAAAAABwDYIOAAAAAADgGgQdAAAAAADANQg6AAAAAACAaxB0AAAAAAAA1yDoAAAAAAAArkHQAQAAAAAAXIOgAwAAAAAAuAZBBwAAAAAAcA2CDgAAAAAA4BoEHQAAAAAAwDUIOgAAAAAAgGsQdAAAAAAAANcg6AAAAAAAAK5B0AEAAAAAAFyDoAMAAAAAALgGQQfKr6/GKCwsTGHPJjsbUF6kvN3ffm76v53ibAEAAACA8oGgAwAAAAAAuAZBR0WyPUn9TQuH0lpoKVHppP28UrOmj9K9N16myzo2yvF6aNTR2tZniIY/N02zvlqvg2nOhQAAAACgAiHoAFzvoLZ8NEkDOzZSTPMu6n/HGE1+b5EWrcnZ7SRljbVt4TRNemSI+ndrp9oxjTTmG+dMAAAAAKggCDoqkiaJmunxyFPQkjzau++AGdqZ1/n+y+PdvPvCvX6epeEJbdXiyuFKWiO1vXqoXpm1TOt2HlDqaa+JVB04sFkr5s/QxLuvVHOlSJnOcQAAAACggiDoAFxqy5x71b15f01anKLmAybq021btO7DVzT0+m5qG19LVZ39TqmqWrWaq/PvEzXs1XnanLpTg1s5Z7lE2sb5mnTPVRryHoOoAgAAAG5F0AG40Jb3huiyayYrWd00NGmd1r07TAlNTo82ClQ1XvH1nLJLHPx6moZPma8DtFQBAAAAXIugA3CZtK/GaOCN07RF3TT6i/l65ea2ebTeAAAAAAB3IugA3OToIo26fpSSFa/EpBl6rEct5wwAAAAAqBwIOgDXSFPy/w3XpBQp/uEZmnZzc2c7AAAAAFQeBB3I4eCGRUp67l7179NdLcLCFGYvjdQu4TINeWSa5m846OxZTHvXa/704RqS4/gt1L3PEI15O1kpac5+JRD0+1BebZyh0U+stAr9NOn+hDLprpK2Pdn72Hdr4TzuYWrU8TL1v2ey5m8s5uNuvWYWvT1Zw++4TJd1bHTyuC269de9z83Syr3OfgAAAABw0og1HrhE8miP9Yx6NGCGZ6ezKSBb5nlGD2juvay9NPd0653gSbCXbp7mJ7fLE99rmGfmFudyATvgWTahn99x4j1teznH79XWE+/bHp/geWzBAe9FfPflmWXe9cIE/T7kL9W6rd3MsS8c7VmR6mwMQHEvl5cVEzrb963zhBXOluDZmdTPvq5+Sc6rLGOzZ+ZfEk4+j/Ed8nrc4z0Jf5nn2ey9RKEO/DTPM/Fmv9eGtTS/0Dmu/2tG3TxDP8z7qL7bGdjSzzNjm3NBAAAAABWOyTas7/YOgg73KEbQcWDBY97KtqmI3vmKZ976A5686typW5Z5pvoqs/EJntFfOIFEYY6s80y9Nd57u1r180ycv85zIMM5zycj1bN50Suewb3Mfs09g9+1Kq5FCDqCfh8KlepZ9rg3aOj2fIBBQ+oKz+gLzW3u5hn9dQlTDs8Kz8RO5lidPRNXOpuCKEfQkbHZM8N+fpt7+k2Y51m3x9nppFTPzkUTPf1amdtnPT7W81novf164smApPmA0Z4ZyZs9qae9Zg54ViQNPfm8D1tw+lF3fjjMCVycpYP3dXgqiPFfhnnmFSkdBAAAAFCeEHS4VRGDjpMtCvxbUhTChAoJ8aZyGUgF3VcJtiq49830bM5dWc3NV2mOT/TMTAos6Aj+fQjQkU89w+xjXumZ+pOzrQArnu/mfVzGrii84l+Yn6Z6Esxj0GmiJ/jtOfyDjnWeZc9Y98N6vqauL+ReHPjU85gTxoxOLmRf8zpu1c/zSnLhz+eB+cOc4Ooxz6eFHPa0ligAAAAAXMMXdDBGR2W2fZYG2zN0dNPo2fM0undgM3TU6j1a8957TJ2tS466b7LMqBD52fLWcA18K0Xxt87QjJf6qXmkc0Z+Ipsr8dVZGn1WkoY+9IqzsQAhuA8Bi0vQ6DeHKV7zNWRkklKczXlaNcm6f8nShaM1+S+dSzyeRsrKRVpkCr07q629JTQOzh6loU/IeuynaXCbQu5FrQQNf2ao9fis1Kg3F6nAETua9NO6lTM19MLCn89avx+lyYOsQsoYzVro0vFXAAAAAASMoKPSStOiV4cqyaqNd3t+sh67sGhV7ao9Rmniw/HSV8M1+u18qvR752vSI7Ok+KGa9nyimjubCxXXTY9NmahGKQVGBZYQ3Iciqtp7lKbdbR3zvWEaPSe/SvcWTRs53BvOvDxMnUth1NCdG+2YQwlnNw/pIKSL3pulqkV47Gv17qfB1sOjKYu0oqCBZ5u0Vds4p1yoWkq4fqhdmvzFCutVAQAAAKAyI+iorPbOV9I4q3Ifb1XI7+zsbCyKqkr402hdaZVmTZ9nVd1Pt2XOZE22ruLKZ4bpynrOxkB16qehv3fK+QnBfSi6Wrpy5GQlxqdosnXsRUedzX5MK5chH0ndxk7WsPNLJ5ZIS/UGNfG1YuzT0Bms4bcW4bGv2kXdrzeFRVq5wd5SKmp17K5+prAxRTvtLQAAAAAqK4KOSupg8iJNs07j7+mvhIB/Oc+lVYL69bZOFyZp0UbvplO2aNHb863TK9WvV8BtOfw0V8L1CU45b8G/D8XUpJ8mvZSo+JRJGj4hOWcLg5+TNPy2WaXWZcUrRVuc0KBdU9NcIoQGJKh7kUKsWmpk38aVSivNphfx8d4WQ7O3FNxlCAAAAIDrEXRUSmla8cVkuzTwwuK0hPBpri69TKV1kVauz9VNI2WlFi20Tnv3U0Ir76aianRWQbctBPehBOIHjNakAVZ1/tlhmvSNr0afollPDNOsUuyyUuY6NldRo5VGZ3W3T1dsKcVIomqMajtFAAAAAJUbQUeltFMpduuFfupydslq275K67KNuTp+/LxeSeb0wnaBj82RS9XqBVVdQ3AfSqS5EifMsG7dqcFOD84ZraFvpZRql5Wy1q9VcZ/dEjh6UCkbkrXooyRNfm6U7r3xMnU/u7tGOWcDAAAAqNwIOiqlFG2ZbU6bmxb/JRLfvIt9uvJozn4IKVtW2KcJQetKEfz7UGJnJWri3660Bzsd9X+TNfpPk5VSql1WfGop/ixvqVRbSZQTadtXatZ0E2h0V4uwMIVVr61GbbvrsisH6t5Hxmjye4uUUq9bsQM1AAAAAO5C0FGp1VZMkBsW1IoL9uCYwb8PJdH8ztGaeKE0/6F7NSklWF1Wqqp2bW/asyXFRUNxpizSpBtbKKZpF/W/wwQaKYrvnaDBD0/UK0nz9GnyOu08kCozXfbm5Eka7FwMAAAAQOVG0AEEVWcl9HPGEOmUoIQ2wUllGrXyDty68qedKr2RRsrOljn3qnujyzT8PanfMzP06foDSvVs1rIFn2rqhGEaevOVSriwreJrleOUCwAAAECZIOio1FKd04qsfN+HtG/GaOgjKxXfqrniV43RsP/LNQtLKYnvnCA76piySCuCcQUhZB6zgddMVvKFj2nezs2a+XiiEtrUKuXuPgAAAADciqCjUopXvJlSVeu1Zbu9odh8Y3F0jstVDY30rs8q1QE+/YXgPpRU2kpNum+UkuOHalryMk2+NV7JTwzTpK+CkES06qIrO5nCDC1KrshJR4pmTbAeM3XWxCmjdWURxl9xQ2wHAAAAoOQIOiqlRmpuV4pnad3P9oZi27JxmX3aPdfsG/FN23kLP+20qq7F4wsg8hb8+1AyaUp+bqhGfRWvxJdG6cp68er3zCTvLCx/maTko85upaaz+t1/pXWaojFTZhX7MS9z2xdp5nvWae+h6mc/vwH6eYvWO0UAAAAAlRtBR6VUVe0697NL85PNxKfFtVLLZpkqdT9171zLu8mnTWcNNadvLdO6YjUwSNO6lbOccl5CcB9KIO2rSRr2RLLib52k0QOcZgknZ2EZFZQuLM2vHqqh5qreG6aJCytoq47tW2Q/652aq5G9ITAHVy/zXg4AAABApUfQUUnF9x5oz1Kx8vmZWlTcOvGqRZqxyjod0F8JTbybTqrVRd0HmEIxu1KkLdOit5xyPoJ+H4rraLJG3226X/TTpGcSc0x76puFJShdWOpdqWHPeFt1TLptlBaVequREKoeU4QxOQ5q0ezJThkAAABAZUfQUVlZleLER+OtOvEYTXqrOONoHNT8v03USsVr2J39rH9zi9eVN5sYonhdKba8NUljCrtQ0O9DcaQpecJQjVkl9XtzohLPcjaf1FlDXx6tbkHqwtL8zlc041bzmEzSwGvGBKGLTIgUpcvTqmma+FF8KT1/AAAAACo6go5Kq6oS7pmsRKt2OP9PAzWmiK0Ltrw9VIOnpNhdM4b2zvu391rXD7VbL5iuFMPeLkIQ8XOShv9phYbebYKSggT/PhRV2sJR6vfsSun3UzXx1rzH/Kh6/jBNerxzkLqwNFfiq7M02nrcUxZbt+WaUVq01zmrIjjZ5Wm+lgVyu48ma8zdw1X7mdF2655COYPkHjzK0KUAAACAWxF0VGZN+mnSq4OtqnGyRl1/lcZ8edA5o2BbZt+rgYlJSolPPK1rRk5WpfX/TOuFFCUlDtSohYUfP23DNA3sNlDLbp2kYYkBDA4a9PtQBEcXadRtk6x7e6WmvmRuU36qqtsjEzUsPkhdWOK66bE5n+oxO+wYo8s6Xqbhb69XYI/MKQc3zlfyRmclVGolqJ9ppaNpGv1SISHQ0fWadk8/jdJEjb6znWKczQWJP7uL9aqUFiWvLPLjAQAAAKBiIOio5OKvn6pP37Uq5SlWJf3itrrsT5M1f0NeVcA0HdwwX5NubKEW/SYrudVgzUiekUfXjJyqXviYZpjjK1lj+ljHfyhJK/eeXn1N27te85/rr3Zth2hR29Ga9Wqimkc6ZxYi2PchMAc1/5GBmpQiXfm3VzS4lbM5P3EJGvW3oYoPUhcW1UvQ6IXrNOO+bpL1uExKbKfaZ1+le59L0qINKTqYx/WlHTyoLavmK+nl4RrYsZG9f+hbg1RVwkPT7EFVVz7bXQn3m9eLc5ZP5kGt/2iS+ndupyE/9de8t4fZ4UVAOiVooGllNH20Rr2Xs5VR2vb12kL6AQAAALjEiDUeuETyaI/1jHo0YIZnp7MpEAdWz/AM6xXvvay9xHva9krwJPS2ll5tPVa989T2m1/xrDjgXDBAB75+xdOvle8Y1tKqm/fY1tI23re9uaffhE89OzOcC/nuyzPLnA0FC/Z9KMjOdxO9x79womeFs61wOz0zb/Xe3m7WfUx1tpa2nclTPcN+39y574EuzT3dBo32fLrNOUguO5P62fv1SyrKq8wroMtumekZeuGp2xPf4fTnsfkA/+dwmWe0vX20VSpYqvW66pb7uB3M89DPMyOf+wsAAACg/DPZhvU9X2HmHzvoGNfeLqIyS1PKqvmalzRfSd8s07rF650BIZurW+8Edb86Qf2v76duTYo5noX5JX7hDE2ePkuLvlik9fbBnWPf3E+Dr75SbevZe5ZAkO9DBZa2faXmL1ykZV/M18qv12nRmlPDfVoVfrVr1Fyde3dT94u7K6FTW9Uq64coM0XJ783QjNkzNf+9ZNntL1p1U7/e/dX/toFKvDDe3q040n6er8nPTNK0j7yvw+YX9tOViUM16s4ExVe+lwYAAADgCmGPrpXGdwgj6AAAAAAAABWeL+hgjA4AAAAAAOAaBB0AAAAAAMA1CDoAAAAAAIBrEHQAAAAAAADXIOgAAAAAAACuQdABAAAAAABcg6ADAAAAAAC4BkEHAAAAAABwDYIOAAAAAADgGgQdAAAAAADANQg6AAAAAACAaxB0AAAAAAAA1yDoAAAAAAAArkHQAQAAAAAAXIOgAwAAAAAAuAZBBwAAAAAAcA2CDgAAAAAA4BoEHQAAAAAAwDUIOgAAAAAAgGsQdAAAAAAAANcg6AAAAAAAAK5B0AEAAAAAAFyDoAMAAAAAALgGQQcAAAAAAHANgg4AAAAAAOAaBB0AAAAAAMA1wux/R6zxeMa1t4sov75a/j+nBAAAAAAoCxd2/a1TQnkT9uhaaXyHMIIOAAAAAABQ4fmCDrquAAAAAAAA1yDoAAAAAAAArkHQAQAAAAAAXIOgAwAAAAAAuAZBBwAAAAAAcA2CDgAAAAAA4BoEHQAAAAAAwDUIOgAAAAAAgGsQdAAAAAAAANcg6AAAAAAAAK5B0AEAAAAAAFyDoAMAAAAAALgGQQcAAAAAAHANgg4AAAAAAOAaBB0AAAAAAMA1CDoAAAAAAIBrEHQAAAAAAADXIOgAAAAAAACuQdABAAAAAABcg6ADAAAAAAC4BkEHAAAAAABwDYIOAAAAAADgGgQdAAAAAADANQg6AAAAAACAaxB0AAAAAAAA1yDoAAAAAAAArkHQAQAAAAAAXIOgAwAAAAAAuAZBBwAAAAAAcA2CDgAAAAAA4BoEHQAAAAAAwDUIOgAAAAAAgGsQdAAAAAAAANcg6AAAAAAAAK5B0AEAAAAAAFyDoAMAAAAAALgGQQcAAAAAAHANgg4AAAAAAOAaBB0AAAAAAMA1CDoAAAAAAIBrEHQAAAAAAADXIOgAAAAAAACuQdABAAAAAABcg6ADAAAAAAC4BkEHAAAAAABwDYIOAAAAAADgGgQdAAAAAADANQg6AAAAAACAaxB0AAAAAAAA1yDoAAAAAAAArkHQAQAAAAAAXIOgAwAAAAAAuAZBBwAAAAAAcA2CDgAAAAAA4BoEHQAAAAAAwDUIOgAAAAAAgGsQdAAAAAAAANcg6AAAAAAAAK5B0AEAAAAAAFyDoAMAAAAAALgGQQcAAAAAAHANgg4AAAAAAOAaBB0AAAAAAMA1CDoAAAAAAIBrEHQAAAAAAADXIOgAAAAAAACuQdABAAAAAABcg6ADAAAAAAC4BkEHAAAAAABwDYIOAAAAAADgGgQdAAAAAADANQg6AAAAAACAaxB0AAAAAAAA1yDoAAAAAAAArkHQAQAAAAAAXIOgAwAAAAAAuAZBBwAAAAAAcA2CDgAAAAAA4BoEHQAAAAAAwDUIOgAAAAAAgGsQdAAAAAAAANcg6AAAAAAAAK5B0AEAAAAAAFyDoAMAAAAAALgGQQcAAAAAAHANgg4AAAAAAOAaBB0AAAAAAMA1CDoAAAAAAIBrEHQAAAAAAADXIOgAAAAAAACuQdABAAAAAABcg6ADAAAAAAC4BkEHAAAAAABwDYIOAAAAAADgGgQdAAAAAADANQg6AAAAAACAaxB0AAAAAAAA1yDoAAAAAAAArkHQAQAAAAAAXIOgAwAAAAAAuAZBBwAAAAAAcA2CDgAAAAAA4BoEHQAAAAAAwDUIOgAAAAAAgGsQdAAAAAAAANcg6AAAAAAAAK5B0AEAAAAAAFyDoAMAAAAAALgGQQcAAAAAAHANgg4AAAAAAOAaBB0AAAAAAMA1CDoAAAAAAIBrEHQAAAAAAADXIOgAAAAAAACuQdABAAAAAABcg6ADAAAAAAC4BkEHAAAAAABwDYIOAAAAAADgGgQdAAAAAADANQg6AAAAAACAaxB0AAAAAAAA1yDoAAAAAAAArkHQAQAAAAAAXIOgAwAAAAAAuAZBBwAAAAAAcA2CDgAAAAAA4BoEHQAAAAAAwDUIOgAAAAAAgGsQdAAAAAAAANcg6AAAAAAAAK5B0AEAAAAAAFyDoAMAAAAAALgGQQcAAAAAAHANgg4AAAAAAOAaBB0AAAAAAMA1CDoAAAAAAIBrEHQAAAAAAADXIOgAAAAAAACuQdABAAAAAABcg6ADAAAAAAC4BkEHAAAAAABwDYIOAAAAAADgGgQdAAAAAADANQg6AAAAAACAaxB0AAAAAAAA1yDoAAAAAAAArkHQAQAAAAAAXIOgAwAAAAAAuAZBBwAAAAAAcA2CDgAAAAAA4BoEHQAAAAAAwDUIOgAAAAAAgGsQdAAAAAAAANcg6AAAAAAAAK5B0AEAAAAAAFyDoAMAAAAAALgGQQcAAAAAAHANgg4AAAAAAOAaBB0AAAAAAMA1CDoAAAAAAIBrEHQAAAAAAADXIOgAAAAAAACuQdABAAAAAABcg6ADAAAAAAC4BkEHAAAAAABwDYIOAAAAAADgGgQdAAAAAADANQg6AAAAAACAaxB0AAAAAAAA1yDoAAAAAAAArkHQAQAAAAAAXIOgAwAAAAAAuAZBBwAAAAAAcA2CDgAAAAAA4BoEHQAAAAAAwDUIOgAAAAAAgGsQdAAAAAAAANcg6AAAAAAAAK5B0AEAAAAAAFyDoAMAAAAAALgGQQcAAAAAAHANgg4AAAAAAOAaBB0AAAAAAMA1CDoAAAAAAIBrEHQAAAAAAADXIOgAAAAAAACuQdABAAAAAABcg6ADAAAAAAC4BkEHAAAAAABwDYIOAAAAAADgGgQdAAAAAADANQg6AAAAAACAaxB0AAAAAAAA1yDoAAAAAAAArkHQAQAAAAAAXIOgAwAAAAAAuAZBBwAAAAAAcA2CDgAAAAAA4BoEHQAAAAAAwDUIOgAAAAAAgGsQdAAAAAAAANcg6AAAAAAAAK5B0AEAAAAAAFyDoAMAAAAAALgGQQcAAAAAAHANgg4AAAAAAOAaBB0AAAAAAMA1CDoAAAAAAIBrEHQAAAAAAADXIOgAAAAAAACuQdABAAAAAABcg6ADAAAAAAC4BkEHAAAAAABwjTD73xFrPJ5x7e0i3Mnj8TglAAAAAKi8wsK81WC4T9ija6XxHcJo0eECJsQobAEAAAAAUH+qDAg6KiDehAAAAAAQPNS5KjaCjgqENxkAAAAAhB51sYqFoKOc872heFMBAAAAQNmiflYxMBhpOVUabxzefAAAAACQv9IYmJTBTcsPBiMtp4qaDvr2z2sBAAAAAOQvr3qUbwlUUfdH8NGio5wo6hupOHjzAQAAAKjMitv6oiiXo4VH2aFFRzkSSABh9vEt+fHfJ68FAAAAACqzvOpJ/kt+AtnHJ5B9EFy06Chjhb0JCjq/KG8g3mwAAAAAUHqtMwo7Di07Qs/XooOgowwVJ8Qo6vZAEYQAAAAAcIOSBgz5Xb6o2w3CjtCi60oZK2rIYbbl3u7bVtD2QBcAAAAAcIO86juFLf4K255bXtt8CjoPweONl2jREVJFeSP4r0dERDglAAAAAECoZWVlOaXTW2vQsqPs0aKjjBQ35CjocgAAAACA4CuojlZQnY36XGgRdJQTBb1JeFMAAAAAQPlQUF2Nulv5QNARQvm96HO/UXzrucsAAAAAgLKTX13Nv77mX/aX33aUPoKOEAnkxR5IGQAAAABQdkpSh6NuFxoEHWWosDeFOfUvAwAAAADKTmF1tfzKCC2CjhDI6wWe34vet93/1LcAAAAAAMpO7vpZ7tPc8tqe374oPQQd5UB+b5LcpwAAAACAskX9rfwj6AiyvF7k/tvyexPkfpPktx8AAAAAIDQCraf5b89rn/wuh9JB0FFO5PVG8d/GGwEAAAAAypZ/3cy/jpbXNpQdgo4ylPvN4H+au+xbBwAAAACUjdz1s9zlvE4RegQdQZTXC7uwF7v/+absWwAAAAAAZS+velphdba8zi/sMig+go4y4ntR5z41TNm3+PiXAQAAAAChF2i9LfcpQougI4QKe5Hndb7Z5lsAAAAAAGWnoPpZYXU26nShQ9ARJEV5Efvva8r5LQAAAACAspNXPc23+PiXC1OUfRE4go4y4HsxF/fNAAAAAAAof/Kq41HXCz2CjnLEvAEKWgAAAAAAZSevepr/gvKBoCNE8nvRB/pm4E0DAAAAAGWrpPU36nWhQdBRDhT0JvAtAAAAAICyV1g9jfpb2SPoCIJAXti59/G9UfwXf7nXAQAAAAChlVc9LffiL/d6XgLZB0VD0BFiRX0R5/VmAQAAAACUjeLU0ajThRZBRznGmwEAAAAAyifqa+UXQUcZKuiN4X+eKfMmAgAAAICylbtuVlA9jTpc2SHoKId4QwAAAABAxUD9rfwh6Chjud8U+a3z5gEAAACAspVf/aywdYQWQUcIFPYiN+f7Fn+8OQAAAACgfMqr/pZXvS436nnBR9BRAfBGAAAAAIDygfpZ+UfQUU7x5gEAAACA8o16W/lE0AEAAAAAAFyDoKMMFCX1IyEEAAAAgPKFOl35RtBRQfDmAAAAAICyRb2sYiDoAAAAAAAArkHQUQ6REgIAAABAxUD9rfwh6AAAAAAAAK5B0AEAAAAAAFyDoAMAAAAAALgGQQcAAAAAAHANgg4AAAAAAOAaBB0AAAAAAMA1CDrKMaYpAgAAAIDyifpa+UXQAQAAAAAAXIOgAwAAAAAAuAZBBwAAAAAAcA2CDgAAAAAA4BoEHQAAAAAAwDUIOgAAAAAAgGsQdAAAAAAAANcg6AAAAAAAAK5B0AEAAAAAAFyDoAMAAAAAALgGQQcAAAAAAHANgg4AAAAAAOAaBB0AAAAAAMA1CDoAAAAAAIBrEHQAAAAAAADXIOgAAAAAAACuQdABAAAAAABcg6ADAAAAAAC4BkEHAAAAAABwDYIOAAAAAADgGgQdAAAAAADANQg6AAAAAACAaxB0AAAAAAAA1yDoAAAAAAAArkHQAQAAAAAAXIOgAwAAAAAAuAZBBwAAAAAAcA2CDgAAAAAA4BoEHQAAAAAAwDUIOgAAAAAAgGsQdAAAAAAAANcg6AAAAAAAAK5B0AEAAAAAAFyDoAMAAAAAALgGQQcAAAAAAHANgg4AAAAAAOAaBB0AAAAAAMA1CDoAAAAAAIBrEHQAAAAAAADXIOgAAAAAAACuQdABAAAAAABcg6ADAAAAAAC4BkEHAAAAAABwDYIOAAAAAADgGgQdAAAAAADANQg6AAAAAACAaxB0AAAAAAAA1yDoAAAAAAAArkHQAQAAAAAAXIOgAwAAAAAAuAZBBwAAAAAAcA2CDgAAAAAA4BoEHQAAAAAAwDUIOgAAAAAAgGsQdAAAAAAAANcg6AAAAAAAAK5B0AEAAAAAAFyDoAMAAAAAALgGQQcAAAAAAHANgg4AAEpklca2bqcWJ5e79G6KcxaCYK/eHeL/eLfT2G+dsyqyw5v1WdKLmvRikj7bfMTZCAAAioOgAwBQiZxeSc5raduzv64e9IgmzVyujQeciwLBkrVek2/sqzueel2TJ4/WHVfcrMnrnfMAAECREXQAAJBLesp6rV06V5MfHaQ+Xbtq4OTl2pPlnAmUttUL9Mpmp2zbrFcWrHLKAACgqAg6AAAo0BElvzhIPW95XWuPO5uA0nRmS13qFH0ubdnSKQEAgKIi6AAAVGqXPzpdM6afWt4Y97CGXNtJNZzzfdK/fVE3TFiidGcdKDW1++qZNx9Qt9pWObaeLn1gup75fXXveQAAoMgIOgAAlVrTc7uq20Wnlkv7D9LI55K06puZejoh2tnLKz1pgt760VkBSlH9C/+sGcvXafOqJXpjaFfVj3DOAAAARUbQAQBAXmq01a3Pv6hbY51122a9tZhRIgEAAMozgg4AAPIT21NX/MEpO7at3KQ9ThkAAADlD0EHAAAFaNW6p1NyZDJKBwAAQHlG0AEAQKhlHdHGRUl6cmh/de3UTi1am6Wzul47SA++OFMrUpz9CpO+XWvnJmnsw4N09RVdneOYpav69HtATyYt0cYDzr6FObBZnyVN0IOD/G9TO7Xt2V9XD3pEk2Yu17bCMh7r9qyY+aJ1jL7qlNdtOezsVxas+5ds37b+6tP11P1r0bXvyftX1NuXvmOV3p3wQI7HvtMV1nM49dR93TPzrlPXZS13zNzrPSOHvXp3yKl9WrS+S+/m9Rr4doLfPtYyZObJ1kWHNy/RVOt1cOq+WY+7db+mLs3r+gAAcDeCDgAACrDxxyVOydGk/mkzshTFnq9e18DuViX0rtF6a+F67Tk5ZW269qxfrg8nP64benbVwKnr85/hJX2zPpkwSJ069tHVD43W1A+Wa+3mI86ZxhFtXLNQbz11l/r06q8RH213tuch64hWTLWOZVX473jqH/pwqf9tsq4qZb3WLp2ryY9OV3K+oUm6Ns58XFd37aMbHn3dOsZmncoM/G5Lz0JuSzBk7VXyZO/9G2jftvU5w58Dm537N0h9zjeP+yodznLOy491zM/G9VenXokaMXVhjsf+8GbrOZxg7muiJq8JReufdK19PVFdr7hLY63Xwan7Zj3u1v0aO6inOj0wV9sKu08AALgIQQcAAPlJX66P33HKjks7tlPOuVgCt+0/D6j3bS8WEBj4HFHyhP66+sVVeYcdB1bqnanL/cKEAhxfr3cfuEuT8xxDNV0rJt2sGyYEeKw8Wcd4MVFXPzpTa/0CkjzZt+Vq3fGfELUyOL5Kk/r11sAXA71/5nFP1A2jFuYfDGRt14cPXaU7phcQRBnmum95QG9uctaDZOPMB3TDpHxeJ47DHz2iwVMZRBcAUHkQdAAAkJcsq9L74rN6K0flvbeuS6jnlIsm/dsJGvzIwlMV7ti2uvGpJH2+ap02/2gt61fq8+kPqFtt53zLxsmjVHD9tLq6JY7SC7MWaNU3K73HWb1cn7/9sC73O46ZLWbSa3NPr+yv+Yf+MnWzs2LJfZusZf031vFmTdDIa5uoqrObv21WRXvgZL9Kf+2uGmZd1/LVzjFWL9Gccf3V/uTsNen67KkJ+iTQLjXFlbVd7z40SJPX+0cA0Wrf92G9MH2mPl++XKsWztSM5x/WNW1zRlcmPPhLkt/j4mfPnNH6fx/5t56xjhrfU0PGvaY5C61jLpmr933HPL5Ek6fmahFUmr4ZrTseXaJ06zEfMm66FizxXv+McX9UlxyzBVn3aUqSPil+mgUAQIVC0AEAgL/jR7Tt2ySN6NdTA/1DAEuroYNyBQgBylqvqY/9QxudVamnRr6bpPGJndTUVyGNiFbTi/6sGW+PUhdnkx1Q/N0vHPET/ftRmvPNcs14KlHXdGiiGjWcynp0dTX9zSBNyXEcy0dLlJzrQBtXLtA2p2y0H/Zczttkia5hHa9DXw15bpSuiXc2+hxYqEnPWhVtZ1WNE/XG3OkamtBC9X3ZQXQ9te//rN5/KfFUS5jjczX23eC2MDi84CU9ucg/5GihIW8u0ZznB+mai9qqae3qqnFmW3XrO0gvzFqoN25t4eznteLZF/Vh7jAmfbleecrv/lqiE57VgsWvaWT/nmp/pnXM+BbqYh9zjqb0z3nMUnc8Xekt/qgZC6db199VreK919+t/yN6f1au5//4TC1b5X/LAQBwL4IOAEClNvVmv8EdzdKpqy65ebTezdESwFuhnXZvp2J1W0n/aqZe8ctMWg17QENa53OkFlfrzr5O2Zi7XCty10/r99eU5xPVvqDBQlr00Y05JozZpN25eowc3p93q4VAbftouj482eIlWtc88oAure+s5hLds7/ubeysWLZ9stIv+Cltm/XB3+fmCCQuHf2aRl5Y3VnLJaKeLh35nIblyCUW6j+Lcj5ghxfNzNnCp/Ef9cbz/dU0wln3F9FElz81WkP87nPpa6IhYx5Qt7xeBy2sxzvRKTtW/LLDKQEA4G4EHQAAFKJV/wlaMDmfCm2h0pW8MMmv0t1Wt/Zu65TzUl0tO/ufv0Rrc+cR5nYUelvqqVVrp2hbr225Wii0at3bKXmtnTRKk5ZuV3pAA1du1mfvr3LKRn9dl5BPkGBrofaXOEVjzSptClZXis1f6d01TtmWqNuubeKU8xHRVtfc1slZ8fps6cocrWnWrprrlLza33GDuuXqIpJDdCdde1Mh11sSjfvr2t/kF71Fq33HnFMjr91J3xUAQOVA0AEAQJ6iVT/hjxr/9hItGNe3mCGHsUPbvneKtvV68opcrUhyLX2e9e/WsV2HChnkM/3Adq1dulyfzZyuSS96p4g1U57eMNXZIR81EhI11L8Vw/FVmjyoj9p2T9SDU+dq7Y4Cujqkb9fGHGFCku7omPf98S6ddUeSs6vtcKH3q9h2W4+HU7QldFL7AJriNG3XNWeLnZWb/br2bNe2HL1tonVpx8K7pjSoF8TuKy3rqYFTzEv9xkHuOgMAQDlF0AEAqNQuf3S6ZkzPudiDSq5eqeWvPaIbf1O8wUdPOaxtOQKBUpKyXFMfTlTXTu3UtmsfXT1okO549DlNnuydIjbndLP5iO6kYdNe1I25BuPUgVX6cMIjurpXZ3UaNEEfrs/jWAf25BjfozzZsyNXE5gWTZRPj5qc4puom1O07Tjk1xJnrzZ+5RRtXdU095gl5U2UcwoAQCVD0AEAqNSanttV3S7KudiDSgbQAqB4olW/bVu17xD40iBXa5JtHz2uPj0HaewHq7Qnr1YRtVvYl2sVyMCpjXtr/CwzSOcfc8z44nN46T/04LU9dbWZorXALi3V1SrX7S54qa+axW4lAwAAkD+CDgAAgipaNXMMSNlVw16fqTmzAl+G+A8dsTlJf3lg5qmBPGPb6ppHJuj9j5do1XJnitnlc+3Lje/v7FOYiOpq3/cRzVi2Uss/fk0jr+2k+jnGnkjX2smD9ODM7c66JbaGco6B2V/jc93ugpdndXlAzSyKLtq6bTmk7Mlz5prTHNirTU7RZmazcYqn26P0ALrepGUV0P0HAAAEBUEHAABB1UStOjtF2xKt/bH4ld+1C/+hFU7ZnnXjtSS9MKSvurSopxq1S9gMJSJa9Vv01JDnkrR8+Vy9kGt61M/Gzjx13TWa6OwcAc7y0wdNLSM1zmqppk7Ztsi6bQE85HvWrczZHefcJn7HsZ7HHGN7rteydYV1DzqidV8td8oAACBUCDoAAAiq6mp3fs7ZPN6auTCwFgan2au1X/u1qtDv1OuCfMKNrPVK/sgpF0d0C10zerSG+LfsOL5eG1OcslqoS4L/da/X1I9yjNZZdlr31I3+IczxJP39A//HLQ/W4/Xu35c4K17XdO3sNzhpPbXqmPOx/uTNOdpYUHeezXP095wTtQAAgBAg6AAAIMiaXtRXXZyy7aPH9eBbm/0GusxD1l4lv5jk13ojL8u1NkdfC590bUx6Ua/scFbzsWL6BH12MrgIRA3VPBl8RKtLQn+/IEDa9uLDenLJXmctH4fX692pC7XHWQ2KiLa6/I5cU8WOuktjv8qnBUbWESVPeliT/FukNH5Ad/bJOV1ul8vuytlSZNVo3TNpVd7P4+HlGnvP6EKePwAAEAwEHQAABNuZ/TUyxzyu6frs2b7qOmiC3l26WXsOHNFhZ9mzebneffERXf2bnho4OXcrhHpq1TpnK4qx9z+ut77drsOH05V+3Fx+iaY+lKirn10u5RhnIw97/qE7enbVwAkzlbx5r9J9rROy0nX4l1V6a9QoTfUfh6JTJ7XzG7Qi+qK79NccrTo2660hvXX1Q9P14RrrNvndr21r5uqtpwap0/n9NeKr4rVnKYpWNz6Sc+pc67ZNva2n97Z96zzmKZu1Yu50PdjPeqyn+qccLTRk4h/VPvdgqR36a2iO7ivSxqmJ3udx0Xpts5+/VfpwqvX89RykqZuj1apFE2dPAAAQKgQdAAAEXbS63PuaxucIBbwzmowY1Fddu3ZVJ2fpesUgjZg8V2vzGeiyy9V3qZVTtm2eqSdv7qNO53dW207m8ndp7Nz1UsIoPf0HZ58CHVHy1Mc18Iqeatu2nVq0tpa2ndWpd6KenOlX+Y/tqqfHJ+Zs0aB6uub56RqSI1BI19q5z+nBftZt8rtfl/R7RE8mLS9ml51i8E2dm9dtu9l5zHv21Q0PPacP1/u3yaiuyye8ppG/yflcedXTjU8/q0tzBUj283hXf11iP3+JenCC9/mrcetrevXOnOOcAACA4CPoAAAgFCKa6MbJc/TCjW1zdPfIX7Ta39g5V7BgaftnTZvQu4DZQKxL/uYBvf98f7Uqpelbo9v21/h3X9OtedXZYztp5LtJGnlRzm4e+auubhe1K/D2lxozde67MzU+wMc8Or6vnv7gv5pyXQGtMBr31xsfPKvLC5y61zx3L2rOyK6q6WwBAAChQ9ABAECoRDTRNaNnatXiJI0f2lfdOrTIUeGv0aKt2vdO1Mhx07Vg+UrNGd1bec3A2vS6F7XEnga2q9rH+6rw1dXqor4a+dpcLf/Xn9W+sG4rli7DlmvB9Gc11BynhX9QEa36bdvq8sSHNf7tBVo161ndmKPLTC41OmnI9OVaZd2mpxN7q33ben7BgvdY3a79o55+fqY+X71cMwYFGvaUghptdWMhj/nJ+7l4gm5tG0Bgc2Z/TVm2RO+P+7OuucjveLVbWPfzz3ph1hL7uWsaIe3eW06mogEAoBIJs/8dscbjGdfeLqLkPB6PU/LyXzdl37qvnHvJzs7Oceor161b174cAACoCNL12VOddUeSs2oZ8uY6jbzQWQEAVDj79u1TeHi4wsLC7MVX9t+WezH8y4Z/2ci9juIJe3StNL5DGC06AAAAgiF9lRb/xynbuqrVaX2RAABAaSPoAAAACIKN776ot/wHlW18odo3dsoAACBoCDoAAAACtGfuBE1euv3UVLz52Db3cd3z7CpnzevSe/uLjsIAAAQfQQcAAECg0jdr0qA+ats9UQ++OFOffbtZew4c0WFr2bZmuT6b+aIevLazLnlopjY6F7G1eEDDrqvnrAAAgGBiMNIgMIOH+vNf9w0u6l/OvTAYKQAA5dOemXep66NLnLUAteivKdOe1eV0WwGACo/BSMs3BiMFAAAoqgjnNCDRan/js5rzLiEHAAChRNABAAAQoPrXvab1i2fqjXEP69bebdW+RXXnHK/oeGvbRX01dNx0LVi+UnNG91f7Gs6ZAAAgJOi6EgSmq4k//3VfVxT/cu6FrisAAAAAUP7QdaV8o+sKAAAAAABwHYIOAAAAAADgGgQdAAAAAADANQg6AAAAAACAaxB0AAAAAAAA1yDoAAAAAAAArkHQAQAAAAAAXIOgAwAAAAAAuAZBBwAAAAAAcA2CDgAAAAAA4BoEHQAAAAAAwDUIOgAAAAAAgGsQdAAAAAAAANcg6AAAAAAAAK5B0AEAAAAAAFyDoAMAAAAAALgGQQcAAAAAAHANgg4AAAAAAOAaBB0AAAAAAMA1CDoAAAAAAIBrEHQAAAAAAADXIOgAAAAAAACuQdABAAAAAABcg6ADAAAAAAC4BkEHAAAAAABwDYIOAAAAAADgGgQdAAAAAADANQg6AAAAAACAaxB0AAAAAAAA1yDoAAAAAAAArkHQAQAAAAAAXIOgAwAAAAAAuAZBBwAAAAAAcA2CDgAAAAAA4BoEHQAAAAAAwDUIOgAAAAAAgGsQdAAAAAAAANcg6AAAAAAAAK5B0AEAAAAAAFyDoAMAAAAAALgGQQcAAAAAAHANgg4AAAAAAOAaBB0AAAAAAMA1CDoAAAAAAIBrEHQAAAAAAADXIOgAAAAAAACuQdABAAAAAABcg6ADAAAAAAC4BkEHAAAAAABwDYIOAAAAAADgGgQdAAAAAADANQg6AAAAAACAaxB0AAAAAAAA1yDoAAAAAAAArkHQAQAAAAAAXIOgAwAAAAAAuAZBBwAAAAAAcA2CDgAAAAAA4Bph9r8j1ng849rbRZScx+NxSl7+66bsW/eVcy/Z2dk5Tn3lunXr2pcra8dT05SafkIZGZnOFgAAAAAofVFRkYqJrqLYmKrOlrK1b98+hYeHKywszF58Zf9tuRfDv2z4l43c6yiesEfXSuM7OI8mQUepMsGEP/91X3DhX869lNegIzUtXfsPHrHfhJFVqlqnpkEQjYIAAAAABIOpD2Ur80SaXSeqU6u6YqpGO+eVDYKO8o2gI4jMm9Cf/7ovuPAv517KY9Bx5Nhx7T94WLGxNZUdXj7SVAAAAACVQ3h2mo4fP6Q6tWqoerVYZ2voEXSUb76gg5/jUaj0Exnad+CwqlWvS8gBAAAAIORMPcTUR0y9xNRPgIIQdKBQBw4dUbVq1ZXliXS2AAAAAEBomfqIqZeY+glQEIIOFOhERoY96Gh2eNk1DwMAAAAAw9RLTP3E1FOA/BB0oECmWVhUlSrOGgAAAACULVM/ofsKCkLQgQJlZWUrPDzCWQMAAACAsmXqJ6aeAuSHoAMBYARgAAAAAOUF9RMUzPsKYXrZUmWmg/Xnv+6bLta/nHspT9PLHjx8VCcyrdsaUc3ZErjICGsJN1MlORtQJNZTrhNZ5nXibAAAAACgsKxjqhIp1aoR52wJHaaXLd9808t6H02CjlJlggl//uu+4MK/nHup6EFHdJRULTpMUfR4KRXHT0hHU63XgbMOAAAAVGYEHciPL+ig6wpKVbVo6wMnlpCjNMVWkWrHWR+efPYBAAAAQKEIOlBqoiOluKrUxoPBBEc1YnlsAQAAAKAwBB0oNaa7CoLHBEmmWxAAAAAAIH8EHSgVEdYrKcqqiCO4oiMJkwAAAACgIAQdKBUm6EDwmZlsAAAAAAD5o3qKUsEgwQAAAACA8oCgAwAAAAAAuAZBBwAAAAAAcA2CDgAAAAAA4BrekRVGrPF4xrW3iyg5j8fjlLz8103Zt+4r516ys7NznPrKdevWtS8XSgcPH9WJTOu2RlRztuTNTHtaKza/gTp+0QcPvSLd95yube5sMrbM1QMv79LNTw7WhTWt9aw0bf/2Y7330XL9fChTkTXb6PLbBqpP86re/bMO68dFszVzyRqlHItUjfa/060DLlPrGt6zvceTho46S9//6x198fNZp46dy89zHtb/6V5NOn+X/vPeHGvfNMU06KA+Awcqoalv+phMpaz4WPMWrdC6X49Ya1V1VverdfPVv1V8tLOL7zrHdNT2pH9q3tojknW7r7rjdiWccVjfz07Se9/+osOqrnZ9Bmtwr8byn5zm8MZP9d77n+n73Wne+ztwgPq08t2h02VkSfuP5nx9AQAAAJVJWNYxVbG+VNeqEedsCZ19+/YpPDxcYWFh9uIr+2/LvRj+ZcO/bOReR/GEPbpWGt8hjBYdKDf2L5+q5xadULc7HtX4Zx/Vfb2rWx8kJ5xzD+ubf4zT69/V1bUPPGud/7BuPWO9Xn/1Y/2c6exi26XFC37WuXc+qxefzzvkOCnlv/rngiM6P/Ex+/puO2ePPnh1rn48ebwdWreuurrd9qBGP2td58iBarrxPf1tyQ7nfJ+fNe/dlYq/9hFrv0c1+NwD1nHe1fuz31Byw+v18Khn9eQfu+j4nFf03uo05zLWPfpmmp6etlr1rv6Ldf3P6rGbGmvttL9p3i857hAAAAAAoAgIOlBOHNaPa3+R2nfVhU1rKKZaHZ3V/Ubd3NnbuiHzh0V6e20rDbijr9rVq2qf37rP9bo881N9sfZUeCBtVN3OV6h1jLNakM111e2my3SWc7x2fS7TuelLtX6bc77OVMItl6hdA3N7rH3qtVGf37XRvuUbtN3Zw2uHml546na1u7qvLk5fqWT11eCLG6uGddk651yhy7tn6qvNziUzN2rBzA1qfc1turZ9Hfv4Zp8BCRla8MUGpXr3AgAAAAAUEUEHyokaat3+TGnZHM37Yb8ys5zNEd6TlG3rldm+i9rV8a7bIhrrrI7SN1t3ORuMVjqrkX/nkAK0b6Xmvi4oRrU6qmedpOw57F03Unfpx/99rnnv/1PP/d9EjU3aIO1PVc42Fx3VupnfdUbGKMo6ad3sDL9uKpGq07CxtHu/7KPv+kXr0tvoN+3975DUpLl1h1b8LP97BAAAAAAIHEEHyo06XYfo4eub6Md/jdOwp17R+//boVQn8MhM3S+tTdLjDz2sB/yWyZ97zz+loerlP8RFTjWrq8CGH/v/p9efeUEf/Jiqum0v1a133Ksn77zEOdNfDdUIoAVJbHR1p2Q5kap92qC3nsp5fx549bQ7BAAAAAAoAoIOhI6vlUZ+IqqqyW+v01+eGqcnb2mlbbNf0AuLnfEwIiOl8xP1pBkrI/fS50zvPqXs5+Wzte682/WXW67Qhe3PVHzNqtIJv9YeJREeqUh11q2j8rg/z16hs5zdAAAAAABFQ9CBEKithm2lH3fm7JCRsv1np+Q42V0l0h6v4uYrGiplyw67q0fDMzpKm61ytBkHI9fi3/2kNGVmStVi/LqfZGrLT6udcgk1aKJO+kU7DkWefn+qBdj1BgAAAABwGoIOhIB3/I3t8+fqi22HlXosTfvX/kczl/oPInpY38xM0qK1u3TYOv/w7pX6MnmX4ps3ti4txXS4RFdFfq7Xpn6qH/em2cdI3fuLvpozV98c8h6htNWoa8YM+a9zmw9r+xf/1OJfGzvnllBMB/W6MkqL3pimBT/s996fY/v18//m6oMVpdRqBAAAAAAqIYIOhESdrrdpaIK04NVnNeLxMfrn+la6+YY2zrlGrOIbZujb91/Q448/rqenLFVq1z9raC8nWIhorD5/Ga7r6q3XW5Met45h7TP1Y/0U10atgzR9dp2uiRr8m1TvbR79guZl/k53XFl6nUqa/O5BPXp1Q63993P2/Rkx/g3N21hdbVsFOsgIAAAAACC3MPvfEWs8nnHt7SJKzuPxOCUv/3VT9q37yrmX7OzsHKe+ct26de3LhdLBw0d1ItO6rRHVnC15qxIp1a7mfTkheMxzceBYztcXAAAAUJmEZR2z6x+1agTpF88C7Nu3T+Hh4QoLC7MXX9l/W+7F8C8b/mUj9zqKJ+zRtdL4DmG06ECpODkdLIKKxxkAAAAACkbQgVKR7ZHSMpwVBE1aBq05AAAAAKAgBB0oNcfSTDcbZwWl7ni6lEGLDgAAAAAoEEEHSk1mtnTwuMdu3YHSlXpCOpLGAwsAAAAAhSHoQKkyg2XuO+rRcatiTuBRcubxPHTco8OpPJgAAAAAEAjv0K7MulKqzCwp/vzXfbOo+JdzLxVx1pX8hIf7XmQoKhMUWU89AAAAAD/MuoL8MOsKQiI7W8piKdZCyAEAAAAARUfQAQAAAAAAXIOgAwAAAAAAuAZBBwAAAAAAcA2CDgAAAAAA4BoEHYDj0FdjNPCuJO121gEAAAAAFQ9BB7ArWUkjf6eLr3hcn6Y52wAAAAAAFRJBByqxLZo1pL3OPecijV/dWVdd52wGAAAAAFRYBB2oxFK065fuuuNfa/XFnOfUv52zGQAAAABQYRF0IPh+TdLgWuEa/H6Ks8HP12MUX+sGzfrVWbcd1Dev36fBvVta54Ur/pz2GjhslrY65/ocWp+kp29qr3PNPrVaqu/QSfpyl3OmY/f7N1jnjdE3x9Zr1hN99Vuz74Rk59xuunvh3/Vg37aq6WwBAAAAAFRsBB0oZw7q02Ht1Pf59ap5w3N6f85/Ne2JK1V18focg4Ruff8WXdxtuFa3eEj/Z+3z/nvPqse+Sbqh5y2alyM0MX7WzGeeV9rN/9L/DmYr5ZFuznYAAAAAgNsQdKB82bVIM6el6Kqn/67n/9xPPS5O0FUDn9O0L4apo7OLaSHy9JAkXfDaUr0/drAus/bp0TtRI6bN1IMNkvTov3wtNnymKf3i55TYtpazDgAAAABwK4IOlC81a6lZQ+nrz5K1NdPZZlSrqminuHXhG5qnYRp0XXNni6NaN/3u99Lu5HW5urn0U48uhBwAAAAAUBkQdKB8qZqgu197TK0X36Lftm+veyYk6Ztfc875unvXIuvfSboh3ozNkXPpO8E6a3FKjm4uUmc1O8MpAgAAAABcjaAD5U7NXs/q/e9+1dwxidLs4erbroVuGLtIh5zzvQZrnBmbI8+ln8529gIAAAAAVC4EHQi+M5rbwcOhY6nedT9bN610SrlUjdf5NzymV5M364tJ3fXlhFs05Qtvy47ouM5mBzU7N8Eew+P0hVlUAAAAAKCyIuhACMSrWS/py7mLco2dsUVfzpzllB1pB3XIf2wOVdXZvfvpKqVo676D9paOFyeqoybrjffX2+sAAAAAAPgQdCAEmut3tyeqwcI7dc/QyZr3xSJ9uTBJ42+6U7svGOrs49g/Xw/9tq8efSlJn5r95k7T048M17yGQ9X/4njvPh2HatzIbvp02GW64QHneM4xpwzrqylfe3cDAAAAAFQ+BB0IiQbXTdXMqcNUc8UYDb76d3powmLVfPB9PdjLCS986nRT4k2NtPoft2igtd8NT7yhrY0f09xlL+uyus4+qqrzH/lUX/xrqJqte94+3g32MWdpa+t7dFU7ZzcAAAAAQKUTZv87Yo3HM669XUTJeTwep+Tlv27KvnVfOfeSnZ2d49RXrlv3ZE0/ZA4ePqoTmdZtjajmbAEAAACAshOWdUxVIqVaNeKcLaGzb98+hYeHKywszF58Zf9tuRfDv2z4l43c6yiesEfXSuM7hNGiAwAAAAAAuAZBBwAAAAAAcA2CDgAAAAAA4BoEHQAAAAAAwDUIOgAAAAAAgGsQdAAAAAAAANcg6AAAAAAAAK5B0AEAAAAAAFyDoAMAAAAAALgGQQcK5fFkOyUAAAAAKFvUT1AYgg4UqEqVKGVlZTprAAAAAFC2TP3E1FOA/BB0oEAx0dE6ceKE9ULJcrYAAAAAQNkw9RJTPzH1FCA/BB0oUFiYVKtGnLJOHHW2AAAAAEDZMPUSUz8x9RQgPwQdKJT5IPF4shSWRdgBAAAAoGyY+oipl5j6CVAQgg4EpGH9OsrOylD2iYMK85xwtgIAAABAcJn6h6mHmPqIqZcAhfE2+BmxxuMZ194uouQ8Ho9T8vJfN2Xfuq+ce8nOzs5x6ivXrVvXvlxZOnL0uA4fPaZs6zaFh0cojDZjAAAAAILAWw/KUrhV56gRV03V42Kdc8rOvn37rHpQuF0PMouv7L8t92L4lw3/spF7HcUT9uhaaXwH59Ek6ChV5g3pz3/dF1z4l3Mv5Tno8MnMzFJGJrOxAAAAAAieqMhIRUZGOGtlj6CjfCPoCCITTPjzX/cFF/7l3EtFCDoAAAAAoLIh6CjffEEHY3QAAAAAAADXIOgAAAAAAACuQdABAAAAAABcg6ADAAAAAAC4BkEHAAAAAABwDYIOAAAAAADgGgQdAAAAAADANQg6AAAAAACAaxB0AAAAAAAA1yDoAAAAAAAArkHQAQAAAAAAXIOgAwAAAAAAuAZBBwAAAAAAcA2CDgAAAAAA4BoEHQAAAAAAwDUIOgAAAAAAgGsQdAAAAAAAANcg6AAAAAAAAK5B0AEAAAAAAFyDoAMAAAAAALgGQQcAAAAAAHANgg4AAAAAAOAaBB0AAAAAAMA1CDoAAAAAAIBrEHQAAAAAAADXIOgAAAAAAACuQdABAAAAAABcg6ADAAAAAAC4Rpj974g1Hs+49nYRJefxeJySl/+6KfvWfeXcS3Z2do5TX7lu3br25QBULBt+3KQfN27Sth07lZqW7mwFAFRGMVWj1bRxI7Vu1VJtWrd0tgKoKPbt26fw8HCFhYXZi6/svy33YviXDf+ykXsdxRP26FppfAfn0SToKFUmmPDnv+4LLvzLuReCDsAdli7/RvM/WaSMzAwCDgBADibwiIqM0pWXJ+iiruc7WwGUdwQd5Zsv6KDrCgCUshMZGXr57//UB/MX6vDRo4QcAIDTmL8N5m+E+Vth/maYvx0AgNJB0AEApci0vpr08t+0adPPSk1NdbYCAJA387fC/M0wfzvM3xAAQMkRdABAKZr21jvas3e/srKznC0AABTM/M0wfzvM3xAAQMkRdABAKfl+7Xr9tGmLPSYHAABFYf52mL8h5m8JAKBkCDoAoJR8/N/PlZqW5qwBAFA05m+I+VsCACgZgg4AKAX7DxxUyq49zhoAAMVj/paYvykAgOIj6ACAUrDll22KiOQjFQBQMuZvifmbAgAoPr6VA0ApML++nUhnbA4AQMmYvyW06ACAkiHoAIBSkJmZqWwP0wICAErG/C0xf1MAAMVH0AEAAAAAAFyDoAMAAAAAALgGQQcAAAAAAHANgg4AAAAAAOAaBB0AAAAAAMA1CDoAAAAAAIBrEHQAAAAAAADXIOgAAAAAAACuQdABAAAAAABcg6ADAAAAAAC4BkEHAAAAAABwDYIOAAAqpYt039PP6OUJI3Xfxc6m8ubs6/TYWOs2jn9Ed5XX2wgAAModgg4AAAAAAOAaBB0AAKB8+uk/GjPyCd03YoJe+8LZBgAAUAiCDgAAAAAA4BoEHQAAAAAAwDXC7H9HrPF4xrW3iyg5j8fjlLz8103Zt+4r516ys7NznPrKdevWtS8HoPz5aOFizbcWoOIwg5FertYxafpxzli9HGDXkLqdLtP1PX+j1vFxiol0Nmam6XDKZiUv+URzVx1wNubWSD37X66LOzRTfDXngtblUr7/VP/8dyPdPqGL4rVHyY+8rCTvuZbr9FgA25dcdIMGXtpaTWpW9Z6delTb13+uqf9ern3eLUCFcmXvXvq9tQAof/bt26fw8HCFhYXZi6/svy33YviXDf+ykXsdxRP26FppfIcwWnQAAICAtL/xPj2WeInOaxKnmPBMpR7ao33HMpURXlU1mrTT5Tfdqfsuqe3s7a+1Eh+6UwO6tvCGHCYYOXBUqaqq+C5X6aGHmirK2bOoYq3b9NC156pJNXmPmWltjIlTE3PcP3bx7gQAACoVgg4AAFCoupf8UbefX19RytS+NfP01xHP6JExL+upp5/RQ8+9r0Vb06xvFXFqffktSjzbuZCj2x+vU7d4E3Ac1doFU3TfyLF6bNwEPTLy//TPL7YpM76+itdmsbbadaqtfSve11MnjzlFczdZt8VSo01XDaAxJAAAlQ5BBwAAKMS5ur5HC8VYpdSfPtVTby7Xdu8ZXvu+1+xX3td3ptdKZH11SrjIu912uXq2jrNOM7U9+e967b87vZttB/TNnL9r9rqjznpRRUq/LtVr//7er4vKTn3y+nJtOWEVwxupRXfvVgAAUHkQdAAAgIJ1OVfNa5rCHq2atdTedLofNXvTHrsU06C5zrdLlj7N1NAMyXFip1bNyXv8juSlW4s5lkaatqz+NI/LfqqUg95SpElnAABApULQAQAACta4umqY02NHtL2ARGLfziNKNYXqtdXa3iK1bhDnHX/j4B59Ym/Jw09pynCKRXNE+z53igAAAA6CDgAAUDDf9CrHDmqJt5S3LUd13Cn6NKnmbVKResTb2gMAACDYCDoAAEDBspzTarXU0ynmqXmcYs1pdqa3ZYefmBgzTgcAAEDwEXQAAICCbTmgw+a0WnU1KWAWk7qNqtsDlurQAa21t0jfHXIij+r1T43bkdvFtWQPAQIAAFAKCDoAAEDBVqzTtiOmUF+d+vnPqOKvta5vWd8u7fvlf/rx/7d3L1BSVXf+6H+onZA2DkRtHBtXwBXQi3CR+EYyRAYvg+noNZcJi9EQjYmPEByiK0pCuCFMiMbHxXg1PiPjDCGL0cXIX9MJQ8Ifw6gYRUX+IHeEiTAjnUj7gDH2mHQMt053lVQX1d3V0C3N9vNZ63D23nW6qK6qrnP2t/bZp6WUK7/Y2BqSHPbRGP3Jj7S0tfWR+PSJH20NSAAAuoGgAwDoxLPx4NrftEwY+qGh4+Pbnz89jmm9odURI+Mz0/86TsxyjLd+Hav+5det7Zlnn4gNv/1jrtA3jvurz8VFo4rDjqNj7Ocvjr/8aH4OEACAbiDoAID3tb5x3Dnfivnzyi1XxRX5ARyvPbI4fvLC76I5DokjRtTFzO99K2785pXx7Tm57a756/jLj/aN+GNjrH7w/vifba7M8uv48bJn4uXsDJZDauKUC66K+XOvjW9/c1bM/96X47MjDovX1rwQv23dGABgnwk6AOD97pBDouoD5ZYPRdW7RwpvxP+8/8aY/z+ejRe3Z5eDPSQ+1K8mjjj0kIjf/y5++/89Hv/w/9wWP34hv3mxF+rjhnvrY83Lv4v//mNE1Yc+HEf06xt/fPM3seZ/3BvffeDt/IYAAPuuT8u/X1+/a9f1w1uK7Ltdu3blS62K61m5UC+US5c//elPbdaF8hFHdDADHLBf/eznK+OnuQXYC0OnxLcvPSGOiMZYfe1t8eN8M7xffer/GBfn5Bag93nttdfioIMOij59+rQshXJxW+mSKS5nisuZ0jp7p883NkR8b0QfIzoAgP3qiI/XREuU/+Yb705iCgCwtwQdAMB+dFJ89vjWq7X817YXYk1LCQBg7wk6AIAedcH0a2PmlDFxXOkZmMecHl+a+ekYfliu/Mdsvo5nW9sBAPaBoAMA6Fl9PxzHnPRXceXMv2tzVZfb/rYuTjzikIg//i42/MvieKjN1VoAAPaOoAMA6FH/8otfxvNb3oj//sMf21zVpfm/fxe//fdn48E7boy7fvlGfmsAgH3jqis9ILtKSrHieuEqKsXl0sVVV+DA46orAHQXV12B3stVV3o3V10BAAAAkiPoAAAAAJIh6AAAAACSIegA6C7OrQRgX9mXAOwzQQdANzj00OqoOviQfA0A9k62L8n2KQDsPUEHQDc4+qgBccghPlIB2DfZviTbpwCw9xyVA3SDoR87Nv74zjv5GgDsnWxfku1TANh7gg6AbnLGKSfFwQf5WAVg72T7kGxfAsC+cUQO0E0mnn1W9BF0ALCXsn1Iti8BYN84IgfoJn922Ifjgr/+P6PvBz+YbwGAymT7jmwfku1LANg3gg6AbnTqSSfGpyb8ZXyg6gMRrhAIQGdy+4psn5HtO7J9CAD7TtAB0M3G/cXo+PzfTIpDq6ujb1+jOwAoL9tHZPuKbJ+R7TsA6B6t3zd+ff2uXdcPbymy73bt2pUvtSquZ+VCvVAuXf70pz+1WRfKRxxxRMvPAQeOlf/6RPzr6qfjjTd2RlVVlVEeAO93ucPA5ubm+MhH+sVfjD41xv3FmfkbgAPBa6+9FgcddFD06dOnZSmUi9tKl0xxOVNczpTW2Tt9vrEh4nsj8s+moKNbZcFEseJ6IbgoLpcugg5Iz1tvNcX2V1+L3//+9/kWAN6PPvjBD8aAI4+IQw+tzrcABxJBR+8m6OhBWTBRrLheCC6Ky6WLoAMAAKD3EXT0boWgwxwdAAAAQDIEHQAAAEAyBB0AAABAMgQdAAAAQDIEHQAAAEAyBB0AAABAMgQdAAAAQDIEHQAAAEAyBB0AAABAMgQdAAAAQDIEHQAAAEAyBB0AAABAMgQdAAAAQDIEHQAAAEAyBB0AAABAMgQdAAAAQDIEHQAAAEAyBB0AAABAMgQdAAAAQDIEHQAAAEAyBB0AAABAMgQdAAAAQDIEHQAAAEAyBB0AAABAMgQdAAAAQDIEHQAAAEAyBB0AAABAMgQdAAAAQDIEHQAAAEAyBB29WJ8+ffIlAAAAehP9td5L0AEAAAAkQ9ABAAAAJEPQAQAAACRD0AEAAAAkQ9ABAAAAJEPQAQAAACRD0NELuUwRAADAgUH/rfcRdAAAAADJEHQcIKSEAAAA+5d+2YFB0AEAAAAkQ9CxH3QlBZQYAgAA9C76dL2boKOX8scAAADQu+m39U6CjgOAPx4AAIDeQf+s9xN0vAc6+0PIbi+3jT8gAACA3qm9Plxn/Tj9vJ4n6NjPit/kHb3h/TEAAADsX5X22fTf9i9BRy+T/UH4AwEAAOi9Svts+m29i6CjlxJ2AAAA9D76ar2foGM/6uyPwh8QAABA79GVPpo+3P7T+sx/ff2uXdcPbymy73bt2pUv7VbclpUL9UK5o+VPf/pTh/XSpfh+C+WC4nI5nd0OAADQG3UleCiUs3Vpudxy0EEHdVhvbym+34LickG5Nrquzzc2RHxvRP7ZFHR0q3JhQWnYUKgXyqX1cmFGZwFH8VK4r+J1prhcrL12AACAA0l7oUG5sKF4XclSLuAobiu9r+J6QXG5oFwbXSfo6GGlwUG5sCFbl5bLLe0FHIX2cj9faCteZ4rL5XR2OwAAQG/UWVhQLmwoXhcvhbb2Rm50NqKj8PPF5YLicqa0zt4TdPSwcoFBafBQvK50aS/0KL2fQr14nSkuV6Kr2wMAALwXuhoQlAsbiteFpbReWCo9XaWwFO6n3LpYuTb2jqCjh5ULCEqDh+J1YSmtZ0slp6yU/lyhXtBeGQAAIHXFYUK5crYuLKX1cku50KP05wr1cuti5drYO4KOHlYuTCgNGwr14vXeLsU/XyiXW5dqrx0AAOBA1l6A0F74kK1Ly3uzFH6+sC6UM8XlgnJt7B1BRw8rFyAUt5UGENm6eCnX1tFSvH2hXLzOFJcr0dXtAQAA3ktdDQnKhQ7F69JyJUu57QttxetMcbmgXBt7R9DxHigXFJQGEMXr0nLp0t5txe2Fcrl1sXJtAAAAqekoXCi3Li0XL+21Z0vxbYVyuXWxcm3sPUHHe6CzgKE4iOioXLqU3lZcL5SL1wWl9XIq2QYAAKC3qSQ0KN2mNITI1qXlcvXipfi2cuWC4nJBuTb2nqDjPdJR2FAol1sXltJ6ubZCvaN1sXJtAAAAqeooZOhoXVhK6+XaCvVy60xxOVNaZ98JOt4jHQUNxbcVt5WWK72teJ1pr9yRSrcDAADoTSoNDtoLHwrl4nVhKa4Xl9u7raBcW0G5NvaNoOM9Ui44KBdAlFtXUi6sC+VM6e3FyrUBAACkrqOwofi2rFzaXtrWXrncOlNcLijXxr4RdLyHOgscSoOJ4nWlbcXrTHvl9lSyDQAAQG9XSYDQXghRKJdbV9pWvM4UlwvKtbHvBB3voXIhQmehRLl1R7cVrzPF5YJybQAAAO8XnYUOhXJH6862ybRXLijXxr4TdLyH2gsY2gsmCuWurjPtlUt1dBsAAEAqOgoVOgsnurrOtFcu1l47+0bQ8R4rFyyUtpULKdpbZzpqK1auDQAA4P2qXNBQLqDoqK2jbQpK65lybXQPQcd+UEkIUS60qLStoLSeKdcGAADwflNJ+FBcL5QrbSsorWfKtdF9BB37QXthQ0dBRblypduX6ug2AACA1HUUNFQSWrS3TXvbl2qvne4h6NhP2gsbKg0vOtouU1ov1dntAAAAKeosZOgsrCiut1fOlNYL2mun+wg69qP2woauhhjl7qe9+y5WyTYAAACpqCRkKLdNZyFGZ/WC9trpXoKO/ay9sKGS8KKSbcqpZBsAAIBUVRI4lNumkkCjvfuu5P+kewg69rPOQodKw4y9uR8AAID3u84CiErDjL25H3qGoKMX2NuQQrgBAADQffY2rBBy9C6Cjl5kX4MLwQYAAED32dcAQ8CxfxSCjoPydfajSv5ICks5xbcXLwAAALSvXD8qW8rp7PaCzm6n57W+AkZ09ApdGZlhFAcAAEDP60pwIeTYv4zo6IUqSQcLCtsWLwAAAOy9ve1ndWVbep6goxfa2z+Sws91tgAAALyflOsXlVu6am9/jp7V+oo4daVXc5oKAABA7yHc6J2cunIAkRICAADsf/pmBwZBxwGk8EdVvAAAAND99L8OXIKOA1y5P77CAgAAQPvK9aMKCweu1lfPHB0AAADAAcwcHQAAAEByBB0AAABAMgQdAAAAQDIEHQAAAEAyBB0AAABAMgQdAAAAQDIEHQAAAEAyBB0AAABAMgQdAAAAQDIEHQAAAEAyBB0AAABAMgQdAAAAQDIEHQAAAEAyBB0AAABAMgQdAAAAQDIEHQAAAEAyBB0AAABAMgQdAAAAQDIEHQAAAEAyBB0AAABAMgQdAAAAQDIEHQAAAEAyBB0AAABAMgQdAAAAQDIEHQAAAEAyBB0AAABAMgQdAAAAQDIEHQAAAEAyBB0AAABAMgQdAAAAQDIEHQAAAEAyBB0AAABAMgQdAAAAQDIEHQAAAEAyBB0AAABAMgQdAAAAQDIEHQAAAEAyBB0AAABAMgQdAAAAQDIEHQAAAEAyBB0AAABAMgQdAAAAQDIEHQAAAEAyBB0AAABAMgQdAAAAQDIEHQAAAEAyBB0AAABAMgQdAAAAQDIEHQAAAEAyBB0AAABAMgQdAAAAQDIEHQAAAEAyBB0AAABAMgQdAAAAQDIEHQAAAEAyBB0AAABAMgQdAAAAQDIEHQAAAEAyBB0AAABAMgQdAAAAQDIEHQAAAEAyBB0AAABAMgQdAAAAQDIEHQAAAEAyBB0AAABAMgQdAAAAQDIEHQAAAEAyBB0AAABAMgQdAAAAQDIEHQAAAEAyBB0AAABAMgQdAAAAQDIEHQAAAEAyBB0AAABAMgQdAAAAQDIEHQAAAEAyBB0AAABAMgQdAAAAQDIEHQAAAEAyBB0AAABAMgQdAAAAQDIEHQAAAEAyBB0AAABAMgQdAAAAQDIEHQAAAEAyBB0AAABAMgQdAAAAQDIEHQAAAEAyBB0AAABAMgQdAAAAQDIEHQAAAEAyBB0AAABAMgQdAAAAQDIEHQAAAEAyBB0AAABAMgQdAAAAQDIEHQAAAEAyBB0AAABAMgQdAAAAQDIEHQAAAEAyBB0AAABAMgQdAAAAQDIEHQAAAEAyBB0AAABAMgQdAAAAQDIEHQAAAEAyBB0AAABAMgQdAAAAQDIEHQAAAEAyBB0AAABAMgQdAAAAQDIEHQAAAEAyBB0AAABAMgQdAAAAQDIEHQAAAEAyBB0AAABAMgQdAAAAQDIEHQAAAEAyBB0AAABAMgQdAAAAQDIEHQAAAEAyBB0AAABAMgQdAAAAQDIEHQAAAEAyBB0AAABAMgQdAAAAQDIEHQAAAEAyBB0AAABAMgQdAAAAQDIEHQAAAEAyBB0AAABAMgQdAAAAQDIEHQAAAEAyBB0AAABAMgQdAAAAQDIEHQAAAEAyBB0AAABAMgQdAAAAQDIEHQAAAEAyBB0AAABAMgQdAAAAQDIEHQAAAEAyBB0AAABAMgQdAAAAQDIEHQAAAEAyBB0AAABAMgQdAAAAQDIEHQAAAEAyBB0AAABAMgQdAAAAQDIEHQAAAEAyBB0AAABAMgQdAAAAQDIEHQAAAEAyBB0AAABAMgQdAAAAQDIEHQAAAEAyBB0AAABAMgQdAAAAQDIEHQAAAEAyBB0AAABAMgQdAAAAQDIEHQAAAEAyBB0AAABAMgQdAAAAQDIEHQAAAEAyBB0AAABAMgQdAAAAQDIEHQAAAEAyBB0AAABAMgQdAAAAQDIEHQAAAEAyBB0AAABAMgQdAAAAQDIEHQAAAEAyBB0AAABAMgQdAAAAQDIEHQAAAEAyBB0AAABAMgQdAAAAQDIEHQAAAEAyBB0AAABAMgQdAAAAQDIEHQAAAEAyBB0AAABAMgQdAAAAQDIEHQAAAEAyBB0AAABAMgQdAAAAQDIEHQAAAEAyBB0AAABAMgQdAAAAQDIEHQAAAEAyBB0AAABAMgQdAAAAQDIEHQAAAEAyBB0AAABAMgQdAAAAQDIEHQAAAEAyBB0AAABAMgQdAAAAQDIEHQAAAEAyBB0AAABAMgQdAAAAQDIEHQAAAEAyBB0AAABAMgQdAAAAQDIEHQAAAEAyBB0AAABAMgQdAAAAQDIEHQAAAEAyBB0AAABAMgQdAAAAQDIEHQAAAEAyBB0AAABAMgQdAAAAQDIEHQAAAEAyBB0AAABAMgQdAAAAQDL6tPz79fW7Xru2tqUIAAAAcKA54saGiO+N6PNu0NEw48iWIgAAAMCBpvbWV9sGHbuuH95SBAAAADjQ9PnGhpagwxwdAAAAQDIEHQAAAEAyBB0AAABAMgQdAAAAQDIEHQAAAEAyBB0AAABAMgQdAAAAQDIEHQAAAEAyBB0AAABAMgQdAAAAQDIEHQAAAEAyBB0AAABAMgQdAAAAQDIEHQAAAEAyBB0AAABAMgQdAAAAQDIEHQAAAEAyBB0AAABAMgQdAAAAQDIEHQAAAEAyBB0AAABAMgQdAAAAQDIEHQAAAEAyBB0AAABAMgQdAAAAQDIEHQAAAEAyBB0AAABAMgQdAABFdqyaHxdMnR+Pvp5vOBC9uPjA/x0AYC/1afn36+t37bp+eEux273TFJse/cf40crfRPNBzdF88LCo++KUOOuYqvwGHXinMdY+uDAeWL8zV8n97OGj4+IvnhvD+7Xe3JkdLyyJWzaeGHMnDcm3VKZp65Px0NKH4/FfV0X/vo2xPWpieN30uGpsTX6LiE2LL43Hh90RF5/Y0e+xORbd3BB1Xxsb/fMtpbKDqWnrzowfTj8jqvNtbe2MR2/+Wjywozb6Z7HUn3bEtlciBo4YHZ+eNCnOLPM87li/LH700M/ihd/1j/5vN8aOwwbFWVOujMkj8v/D66vixgURl3XwuFq2WV4b104p/9zteHFV1P9sRaz99Y6o6tc/dry6I/oPGhZj6v4m6ka0fYF2/GpB3Fi/NV/L2dkQ26I2BhZtNrju6rjs9ApfWOB9q6lhXTy2/Jfx6HObozn32VO1c0c01w6LU8eeE58+bVBUH5zfsEI7Nq+IpUtWxGPrG6Ipcp/5g0bGhCmfj/NLPsdavLMzNjzyj3H/8mdi25sR1bUnx7jzJ8Xk0bW5nyyS+9xdu2xxPLByXWx5vTnisNo44bSJ8bnJY2Nw+Q/63V56JL76rSWxvW52/Lidz98Wb6+L+6+cH8tPvKLd/ce25fPimoXVcdmtV8dZh+cbD1CbFl8cc+rzlXaN7LbftWXffG9uP9lLn7vmxo2xsv4Xub+D/HusRfb+HR1fuOaSODV7+2ZBx3caknj9AaBSfb6xIeJ7I/r0cNDRnDs4mRcPHTU9rh2XDwmaNsaiuUuiZsbsmFDb2lTWO43x6K23x7aJM+PCE/KHcK/kOt9zt8aE+VNjVN/WpnKyA4Dl//yLaDyoOZYfdl7HB4slmnMHBnN+UhOXXTo+Bh+Wb3ynObbvbI4Bh+8+lGw56FqRO6i6LncAsTv/KNFZ0NEYy69fGGtzR8inXdLegUgWdNwXUXJ700ur4kd3LYv+l86NyUN2H2Jvzx2cfX/r2fHVKSNjQKG5eWdsb6qOAf3yDfsSdORel6cX3B4PHTw2vnDu2BhaU3R4/2ZDrF2+IO75zdj49pfHxoB2OhzZAeQ98cW4dqxgA6jQOztj7T/dFg+9PTo+V5f77Dmq6LMn9xm37X+tir//py1x2pVXxIRKgvTM5iVx0dwVMfgT58VfjRkU/XKft1tWPByL1jTGqEuvy31GFX24t+yTZsU9GwdF3dTzYlTu83jbU0ti0cqGGN5m253xxPwZcffWkTFh0tm57aqi+fXn46GFy2LT4RNj7twpMbS9/Vf2f9xyTdzzfK7cWdCR0xpk7IzJf3dTnH9svrHgzWfi9qtvi83jZ8dNufup8BnptZpe3hgv7chXcnauWxy3/+zIuHDm2TE435Z19GuOH7J737cPem3QkX15VD8/5j24OZoPGxJnfmJYHHfsCTGgeWu82Lgjtr+wI076yhVxZvaYeyroeOWZuH/x03Hc1Pz/AwC9SCHo6NlTV15aFve8PSmuKoQcmephceEVJ8bPV2yMwncQ5TQ9tThWjrh8d8iROWpsTJ+6Ix56vDHfsKdND8+Lu59qjlFTr4yLP9lRklLO1qi/szE+XRxyZA6uahNyFNSdOzTq/2FVbH8n39BVW5+Mnx9zTlw8pipWPtf+71RO9bFj47IrRscTy9dFU74tmp6JBx4aGpddUBRyZKr67Q459klzrF04J1YOujzmXjK+bciROaw2Rk2aHd8euSZm3f3M7scFsC/eaYwn7rwtnvpY/rOnOOTI5D7jBp50bsyec040LZofS1/qaO9SpO/guPzmO2Lu5RPjzBHDYviIM6JuxuyYfnr2WbciNhV9tmf7pHueq4nJs2fHhWNH5rYdGRMumR1XjY/ctkvi6TfzG+b0GzM77px/dX67YTFq7JSYO2tSDGhYFg89lY1QLK9pzZL4+8baGJivd2bg2PNiQt/GeGDJqijKAFpsWbkknnh7ZJw/4cAPOTLVx2Svz+7lhGOyoLwmjitqGz6ie0KO3qs5Nj04L+Y8uDWGT50bP7wt9169YFJMGJ29xybG5ElTYvr//R6EDzs3xfI1TfGHfBUAeqMeDTq2/K/nY8wnR+55kHXsyBjz7JrY0O6xaFNseC7ir0bvGVRUn3hm1PxyXWzL10sNPS+3468bGQPLjePtVHO89WpN1BSHHB35386Na05bE9/PvlnJN3XFludWx/CP5w7MRpwa/X/yZGzJt1fso0Pi1NWbdj8Xb78VTQP7Rf8uDt2uVPOLS2JR0xdj+oSSYdolBoy9MqZXL4mHXtybZwWgre2rFsZjIy+Py05vDc2bX1kXS2+dE9MuvTgumHppTPvOXfHEK7kbqofE+TPOi7d+9HBsquTj55iT48yj8uV3VccJI0fmPk8bYtu7mcTOeOrxZyJOPy8mDMo3taiKUePOiwFvPxm/eqEQ7faL4acP2fMUmmOHxam51dqGdkLtN5+JBT/895hw0ZQYlW/qVN+Rcda5uf3k849EffHn7eur4oEHG2LApElOWUhItg/+QX1DDJ06N67NvRG7epoWALyf9GDQ0RhbNgyKwcfkq23UxuATN8f29gYxvLM1XvztCTGoXOBQfXQcFw3R2CN96H5RM2RzvNSQr1ZgwJipMaFhYTzQ1U79O5vj8eUjY8ywqojDRsbpH1sVa1/K31ap3zfFG8fW7D43+7CaGPDrrbHl7Xy9WzXHhieeiTHnnNzOXCLFcgf/Z46Mlb/auwAI4F3NG+OnT54YF47JhxwvLo5ZX7stnjpsbFw266a444aZcdkn+8fvCiMq+g6Lz5zdED9a1bVRcsX+8E7rJ9cHCh3Jps2x/vmIE4Z/bM/Pv2OGtAQYT7/cyY4jf59V5VLi7JSVe++KzeMuicnFoxgrMHjcpDizb2PUP7w6P6oj91ldvzDWxskxeXwhldkci6ZeHDeu2hnNL6+K+78zIy7K1S+aMT+WvpBPc17fGEtvnRVfyrVfcOmMuHHxupLRitlplLnbFm/OFYu2nTYv7l/V0PpZ37Q1Hr1/Xj6AmhZz7l5RtD/K//xVj5QN9Zt+dVfuZ+bF8iyw2kfZPFuL3g3Cst9zTtyy+MnYVm7fmM27Un9XzJlxaX7b+bHo2cb2Ryvkt583c1rL9tnvec0Nd0V94XnsyNZH4prcz8xZXvJeef3JuDH3WK95uGguqz00xdPLl8X2IyfFF8Z3dbRqxI71j8Qt+cd80Yyi16xY7vV7YvFtMSv/XFwwbVbcsnRj7Hj3fdD6PrrgO8ty5XVxz4zW5/eCm/ccUQQA+1sPBh07Y9v2/tG/7Ff/VXFo363R+Lt8tdTOxtj25/3jI/lqW4fGB/6sMXYUDRPuPjUx7m+GxM9vXdD67WAlDq6Js6ZNiubv3xZPdGFm8+aNq2PthNExtOVAujpGnfqxeOhXuQPILmje9EI0nDJk9zDnqmHxqSmNcftNj8Smbj9vZGu8+PjJMfSj+WpnjhkaozY1xPZ8FWBvNL+wJraPOSUGZp+VzZvjgTuXRfXUuXHdJeNj1LE10b92SMupIROKprOoPuWTcexzuQ5avt41TbF5w8aIISfGkMI0Qjt2RNY1PebwMrMaHXxkDDwh99DebOo42P2PzfF0bt837vg2Q0JabH98Yfz9K+PjK//XsA5Hy5V12Mnx6eJRHQ2r4oHlzTHws+fFmSVfFvzh5Z/F7fdtjtq6K+Laqy6JCUdujAeuvyGWPvtk3D57cWwfMSWumjkzpk+syXXm58dNS8uE1W+uiUXffzjitKm5ba+IC49viuX3zom7V6+LpXNviMf6nx1fmTEzrr34lGh6bGHMuePJ/OvQL04bc3LEq+VC/aZY+/STEaefHZ/YY4RN12x/7Lb429l3xcq3h8XkL8+Mb+Z+n8snHB2NK+6Ka+Ysjk3FYUfLvCtfi+8u/U3UTPhiy7bXTjkh3vjnOXFT/W/yGxV5O/f+m9O6ff+xn2/Z/ptXZSNw1sWi678WN3YWrg2aGJedXxubHny46FSn5lj78H2x9vBJ8ZW6Pd8b78q991/8VW43f/qwGNylkRzNsW35/JhVn3t6p16Ze8xXRN2RW1tes0XPF7+6O+PRO3Kv4/qqGDPl6pbfbfr46li75Ibc71t4H9TGWdnvfEHudYxBUTet9fn95vnDckdmANC79OwcHdlpFPliqZrakflSOw7v187IgX4xsOwoke5RddyUuO7KIbH+thkxb+nG2N7hkWte35Fx4Vdr4yf3VzpfR+6gbtW6GHPi7oOa6pPOjHErVndwOk+RbHLU9UvihqXV8YW246hjwNir4+ZJEf/0jTlxz6qt0dTe4/m3JXHjt+bErPaW+UtiQ37TFk07Y/vRuU5FpQdY1f3iIy815n5TgL331s7GGPjn+cRh6/Ox/NXx8ZlxnXyjXTUoBmcj//LVrti+6q64+1e1Ufc3Y2NAvi1+19gyCqHqQ+ViiA/kbsitXt0Rb7U27CnXQV5015J44+NT41PZKL4i2QiVm+59NSZ8cVL7k5R24t1RHctXRP3SXGe+7xkxedyeneYXVjbHuJmXxISThsXwk8bGhddcGRP6NsQDt9wXH758dlw2vnVOkTMnzYyrxkZsW7YmtpTuQ1ZtjppLZ8b5o7M5Mc6IuunT4+IhzfHEHfPjufGzY/b5Z7Tcx6jxl8RXLxgUzc89EWvzXwJUn3J2y5wijz5fMnLh9TXxWK4Tf+apI9vZ71fo9VVx/93PxEfqZsedM6fEWdnvmf0+dVfEddddEqMalsUPlu3+v3c8vrBl3pW6a7JTXlsf9/DRE2P63JkxZo93T3NsWnp3LH1lWFx23dzd22fP48xb45vn9I+19y6OJzr8EqYqhtZdEnWHPxmL6lvDg+x0lPtX1MTkaed2HGC8uaPli4PhtUVznlVkYyxvOCW+/bVz352HZnLL694cyx8vmuMr59DTZsadc6+IupbXtvh98Hx+FE51DMzu42PZY8gdix3fut3wITVdD+gAoIf1bNBxgKo6ZmxcNvf6+Nzhq+P7M+blL2/bsSwguWxI7iBqRQXnvby5Lh7bNDZGFY+OqMouj7gqnn6hXNKxMR6Ynw8gZlwaX5o1Px7YekJMn13+wLj/CefG7PlXx5jXF8ffzloQj24tEzccPymu/bu5cV17y9WTos11eJqbhRbAe27Hjt3frO9o2JrrHFbFoT3Rq8quZvHwvLjm3ldjzPSr4sLjuuk/eeXJuGfOvFj+4Ukxd1rJ1agaV8UtN62Imkv38f8rjOr41eJYtLo5Bp57Tpxa5tTPqvGj216xrO+gGHx8bn3keXHWiOL/vyrXXjpPSd6JY+O04pzp4No4NruPOHmPebUGfmxY7t91se3V1nq2nzurria2/3JdmwBl+3OrYm3f8THupH2KOWLbmhUtp+x8pq7MBKw1o2PC+Nz/Vb8mNrU0NMbaXEc/m3flM6XP/cGD4syJ2WMv0rwxHq9vjAF1k8pcaa0qhp81MQbHM/HY850cL/QdEpMvmhhRvzhWvrw16u9bFlWfvTzO72Awx76aMLHkfdd3WIwak1s3vVV0ik6/3DHIsJJ5Pwrvg62xrQsjVgGgN+jZoOO/mtv9hquxIXeA0ZG32xsGvDO2vZwvdtnmqC8duZBb6sudMXJwdQwee0lcd/PU6P/otzofkpozuO6qGLf+7ljUyXwd25/6RWwdN7Lk25uqOO7jY2Plv5a7WsmwmHx1PoC49d744Q0zY3rdsI5HVxzcL4afPzN+OPOU2HbvDZ0+pk71OzIGvtRYdK5uJ3a+GttOrI2ufvcEUKx//6Mj/pgvH5l1pHP7lU4/znIduLe6EBw05fYNN38t5iyrislzZr876em7Dqras+P8rtz/9V+5VW3NHiMYt69eELNm3xdbjr8ibpp1bgwuDhmyUR43L4jG8dm35vv+Sdk6qiNX6Ds+LiwZ6Vew52iA/AjJrkxifUztHr9n6wjNyibyHnxirtP96sPx+L/nG6Ih1v5ycwyoGxvDu/CSldP0+tbc75/b75R9HFVRO2hYS6e9sSWLyB1LvJBrPfrIsqNIPnBwyYPJj6ioPbKdcapH1bZ8ObDhlc6PFapOmBQXj98ai+bOiweik1NWSjTs6OoJWSNj4J/ni+/KTh/OrZ4vGfX0TlNsW78q6pcsjttvyB0fzZwW0+7t5FgNAHqpHgw6cjvSN9vrGDfFjteHxcDyk3DkDlQOjerf7Ig38tW2dsSObbkDmcK5010yJOpKRy7klrqic7v3UD0oJlx+ZQx8aEk83dmQhmy+jovPiW33LYkN7U4I2hhrH2uIqjW5A+CSwGXOA5vj0OefjrXdOf/I4SPjwqvHx7Y7l3X9qi5t1MZxo5+JTRWGTM3/uSkajxvU7qlLAJXoP2hovPhi/nSDwUPjrL4rYvljnXQmX98ca3M/Nzhf7dArq+KWr82LRw+fEjfNn5nbH5Tp9h5e09KJ3fbbMt/Wv7MzGl/KPbQji3ZKuQ7jhiVz4poFDTHqqpvjukvOaPuNes6Opx6O+obcfdbPa5kYtHViy2yZF/XZBrn2rJ5NIFqRw4bEiGxkxfGD2gYqvc2xZ8SnhjTH8l/lLzH/0jPx05eGxKdGd9OQhg9/oINQKlPdZkLYj5SdHbZ91Z1sX+n9HXpYTTS/nXsGcgczFY1jOXxQHHdkNvplc8/MfdX4ZNxy5bS45o5l8eKbVTHglHPiwqlXxlXnl4xsAYADRA8GHdmVVdrpGL/TEC9uPSEGt/clVnZllf9+IcqdcRGvb40Xhw6NYyv99qk7VNXEwIFN8VYlVzM5/Iy46qKI++9oZ76Ol56Mn8akuKZM4JIt19b9R/zLU51/I9Qlh9fGwFffameETKWqY9SYkfGTlesquJ+d8fiyjW3mIAHYK4POiDEbf9Y6eWP1yXH+RSfHiwtmxZwfr4oNDTuj6fWG2LBqcTz67si85ti0fFmuo1bBxJ5vPhO3z14QDWNnx3WXjo2B7QUE+U7m2l9np86UeLl1ktHhg3eftrGlfl58d1m/+MJ1s2PyCeVT+UOHndc6keMey5SWq7jE6VNa6p8Ztm+nc/Q+NfGJCSdH86o1kQ003PJ8bl85ZHSM2sdJSDPVudcpXt0SDWW/LGiOhq0bI44cGDUtT2lVHJoFBy+/Wva0zLfeLgmYDuvfMmfL5t+0s39+Jfc+zK2GHNX56JxsXo57lkZMvuqKOPPfFsT9FV0haFCces6Q3ANYHD9tM4lo99i04r54unl8XDv/urjq4kkxeXzrHCSDXJ4YgANUj47oGH7KyHh89Z6ztjevXx0bcp3m9r9tq41Rn3w1Vq7Z85usbWtW5451h1X2DUi3yYYmV7cO9axANiz1stoVcf/je87XkR3UDZowevckdyUGj54Y8ct1sS1f7xbNTdF85KGdH/R3omrExPjc64vj7tUdH5RtX3lfLD/mkujCaFyAdtTEuM/WxEP3tobHAz5xZfy/874YxzUui1tmzogvZZfKfC6if75DlnUi//71XEetzZwT5W1ZsTieOHpKfPWzZeZ0aCPXyTy7NmLFL+LxNh9/zbF25cOxvfa8GPOxfNObT8ZDDzbEWV++ssxcDrtV1Qxpnchxj2VI6/7hyNbbh9bs6yd371M94tQ49e1sTqp1LfNenNrBPrErBp44NobGM/FQfqLPNhpXx/IVEUM/fUb+2GNQDD8999yu/lk8VrqrbloXP3+wZMLUbB6tCVWxvX5JPLrHLrA5Njy6LLZUMs/I25vjgfuWRZyf20eedEZMvmBkrF2wsMx97mng2ClRV9scy2+fF4uerXCkT0V2RmND7hk7ujZqio9z3mmItas25iulNsZ283YA0Iv16BwdVcMmRl3DwrY75GyY8INVba8W0vRM3DNtTtQXjf4YMGZKDFye6zAXDetoemFx/GD96Jh8yu4DiaY1C+JLs5d1TzCwc13Ur9jc9korzY2xYcnCePz0c+LUitOVqhj62ctj1OMLY3m+pUXzxnh0+ciYUPT493DUKTHuz5bF03tcfq8Cm1fF0mcb2l5p5c2t8ej9D8cfLhxf2TDujrRcSvfyOOYXc2LOknWxreRbs+bGzbF8wbz4wW/Ojms77TgAVKZqyKT46pjN8YM7V8SW3C6hetAZceGM6+KHC++PHy+8I26aMSVGHR6x49mFMecnNfGVS06uIAxvjC0bc73LI3KljRtjw/oyy8u79z8Dx+c6prXr4p45N8SiVetytz8Z9XfMi1tW1ETdFyfunnPpP7fE01EbH2javOf9tSwl+5j3o8NOjgkTIlb+eHHuuRrf8T6xK44aH1+5dGRsr58XX75hcTz6bOtz/kT9XTFr1oLY8PFL4itF6dPQCV+MUX03x/1z5sQ9K7LXdGOuY7845n3jF1E1rvSUjaoY/tmZUXd47j0wa07cXv9k6+v57KpYdMOM+O7PqqLumimdzDPSHBv++e6o/8PEuDg/YeqAsVPi4iG5+/yHCq7a1ndIXDjr6qg7qiHqb5kRX5p7VyyqXxVrWx73snggm1vjO3d16VL3rfrFkBOHRLyUO8ZasKLl/jY8uyL3Xr87Xqwpc+rK0YPj1NzvUv/wIy3bPrrimb28lDMA9JweDTpaOsYzpsdx626La2bOiVmzcx3kpc3xmVlTylwtpLrtTPotO/TzonnpvHd/9vZ1J8RXZ5TMHp45tLp7OtUfzi5JuDoWzZ0RF02bFddMuzSmzV0cm46/IuZ2dXjCwbUx4UtTY3jRM9z8b2visbGjOzkQ6henjfnonpffq8QxQ2LASw/H/FnT4qIZs2Lapdn5tqsiJlwdl3XXgWTfQXH+rJvjsmMb4qE75rT+H7Nbn68b/vn5+PC4q2PuBSMrn9gOoAIDTr8kZp5bFctvmhU3Ls517rLLV7/ZFE2vbI0Nq5fF7XNnxe3/cUpcO2N8+6egtNE6GWWsWRw33nBDfLfcUvxVf7ZPmjM3LjutOR5fOD93+z/Go83D4vLr57a5YsqOV7OfaYjld5e5v5bl4XihO+dhOiBVxfBPnBcfacg9V90wCWmx7BLrt86ZGp+IdfGjW1qf8wWrmmP4JXPjztLjh8PPiGtvnhkXnlIVT92fvaa3xaLnIv7ymiuj7pgyDyp7D8y9Ka6tOzIalt/X+nreuSRe7H9efPPW6zq9ck7z87n32s92xISLJ8Xwwns0d6ww7sJzY+DzFZ7C0m9k7jHcGtdNOzdG9f2PWLl4Qcv798Z7F8fypzZGw58NbDsqo0IDzroyvjlpZDSvWdhyf7c8sikGXzyz/Miow86IC6ePj8Gbl+S2nR8P/GdVdpFlAOhV+rT8+/X1u3Zd3+ZiogDQ+7zTHDte2Rxrn3shtrfMm3RoDDh2WJzwvw+KAd3YYaaHvfRIfPVbq+KseTf16KVVAYD3lz7f2BDxvRF9enZEBwB0p4Oron/tsDirblJMnpQtE+Osk4QcB5bm2PDYw7F9yMQ4U8gBAPQAQQcA8N5585lYvjzizIndMwkpAEApQQcA0OM2rV4Wa7NJLm+4L9Z+fGqbicUBALqToAMA6HkNS+LGWxbH2sMnxdxpZSYWBwDoJiYjBQAAAA54JiMFAAAAkiPoAAAAAJIh6AAAAACSIegAAAAAkiHoAAAAAJIh6AAAAACSIegAAAAAkiHoAAAAAJIh6AAAAACSIegAAAAAkiHoAAAAAJIh6AAAAACSIegAAAAAkiHoAAAAAJIh6AAAAACS0afl36+v39WyBgAAADhQfW9Ea84BAAAAcOCL+P8BRCj2V1+F6gAAAAAASUVORK5CYII=;" vertex="1" parent="1">
          <mxGeometry x="-60" y="2040" width="1082" height="1154" as="geometry" />
        </mxCell>
        <mxCell id="uIYsc5EEo-gaZTBiMCS1-40" value="&lt;font style=&quot;vertical-align: inherit;&quot;&gt;&lt;font style=&quot;vertical-align: inherit;&quot;&gt;1&lt;/font&gt;&lt;/font&gt;" style="whiteSpace=wrap;html=1;aspect=fixed;fillColor=#e1d5e7;strokeColor=#9673a6;" vertex="1" parent="1">
          <mxGeometry x="54" y="2660" width="20" height="20" as="geometry" />
        </mxCell>
        <mxCell id="uIYsc5EEo-gaZTBiMCS1-41" value="&lt;font style=&quot;vertical-align: inherit;&quot;&gt;&lt;font style=&quot;vertical-align: inherit;&quot;&gt;2&lt;/font&gt;&lt;/font&gt;" style="whiteSpace=wrap;html=1;aspect=fixed;fillColor=#e1d5e7;strokeColor=#9673a6;" vertex="1" parent="1">
          <mxGeometry x="257" y="2760" width="20" height="20" as="geometry" />
        </mxCell>
      </root>
    </mxGraphModel>
  </diagram>
</mxfile>
